<?xml version="1.0" standalone="yes"?>
<svg xmlns="http://www.w3.org/2000/svg" width="310" height="320">
<path style="fill:#9b9b9b; stroke:none;" d="M0 0L0 38L66 38L66 0L0 0z"/>
<path style="fill:#555555; stroke:none;" d="M66 0L66 38L0 38L0 42L63 42L71 34L70 0L66 0z"/>
<path style="fill:#9b9b9b; stroke:none;" d="M70 0L70 33L71 33L70 0z"/>
<path style="fill:#0b0b0b; stroke:none;" d="M71 0L70.4113 31.8302L63 42L0 42L0 44L60 44C49.0184 59.6938 17.6022 53 0 53L0 56L52 56L52 57L0 57L0 60L49 60L49 62L0 62L0 63L47 63L47 65L0 65L0 66L46 66L44 70L0 69L0 70L43 70L43 72L0 72L0 73L42 73L39 82L0 81L0 87L37 86C29.4363 91.7303 9.40761 88 0 88L0 109L32 109L32 111L0 111L0 114L32 114L32 115L0 115L0 121L32 121L32 125L0 124L0 127L32 127L32 129L0 129L0 130L32 130L32 131L0 131L0 132L33 132L33 133L0 133L0 140L33 140L33 142L0 142L0 144L34 144L34 146L0 146L0 149L35 149L35 150L0 150L0 151L36 152L36 153L0 153L0 155L37 155L37 159L0 159L0 160L38 160L38 161L0 161L0 162L39 162L39 164L0 164L0 165L40 165L40 166L0 166L0 168L30 168L41 170L0 170L0 172L43 172L43 174L0 174L0 176L33 176C38.2205 176 42.9973 175.105 46 180L0 180L0 182L48 182L48 183L0 183L0 185C15.0555 185 34.5712 188.265 49 184L52 190L0 190L0 192L36 192L51.9097 192.603L61.4861 202.981L69.3974 213.019L70 251C54.8192 246.627 40.9993 232.376 25 232C25 251.879 20.5221 278.109 27 297C21.3993 292.335 23 284.694 23 278L23 229L22 229L22 293L21 293L21 228L20 228L20 293L19 293L19 246L17.9722 227.213L0 217L0 320L54 320L54 310L39 309L39 308L55 308L56 320L73 320L70 311L77.6373 318.972L92 320L92 319L87 319L84 312C88.0278 314.041 90.4764 318.177 95.0008 319.49C109.444 323.68 130.01 319.909 145 319.71C152.352 319.612 163.001 321.307 169 317C171.615 321.033 176.614 320 181 320L181 319C178.437 316.152 174.463 310.015 178 307L176 296L170 296L169 281L170 281L170 287L172 287L172 278L176 278C173.229 285.605 174.355 289.576 183 288L182 320L191 320L191 306C200.142 316.573 201.572 320 216 320L213 313C216.963 313.977 217.703 316.069 218 320L257 320L258 316L259 316C263.967 324.097 287.227 320 296 320L291 306C297.415 313.78 298.986 319.991 310 320L310 217L297.028 226.015L296 246L297 296C289.514 293.689 291 285.406 291 279L291 227C284.102 228.987 280.131 233.908 274 236.974C264.305 241.821 256.996 242.07 250 252L258 245L258 291L250 291L250 292L258 292L245 319L250 299L244 299L241 253L240 253L240 293L239 293L239 240L240 211L241 211L242 253L243 253C243 240.602 239.421 221.755 243.585 210.09C245.106 205.827 249.295 202.326 252.025 198.816C254.361 195.811 256.399 191.11 260.104 189.603C264.547 187.797 271.271 189 276 189L310 189L310 188L260 188C263.363 182.006 268.842 183 275 183L310 183L310 182L263 182L263 180L310 180L310 175L266 175L266 174L310 174L310 172L268 172L268 171L310 171L310 168L270 169C278.005 162.936 300.012 167 310 167L310 166L270 166L270 165L310 165L310 161L272 161L273 158L310 159L310 155L274 155L274 154L310 154L310 143L277 143L277 142L310 142L310 136L278 136L278 135L310 135L310 132L278 132L278 131L310 131L310 130L278 130L278 128L310 128L310 127L278 127L278 119L310 119L310 117L278 117L278 116L310 116L310 114L278 114L278 113L310 113L310 110L277 109L277 108L310 108L310 105L277 105L277 103L310 103L310 101L276 101L276 100L310 100L310 95L275 95L275 94L310 94L310 91L274 91L274 90L310 90L310 87L272 86L272 85L310 85L310 83L271 83L271 81L310 81L310 78L270 78L270 77L310 77L310 73C299.212 73 274.028 77.5791 266 70L310 70L310 65C298.221 65 267.174 70.5161 261 59L310 59L310 58L259 58L259 57L310 57L310 56C292.491 56 268.738 60.4014 254 51L254 50L310 50L310 46L251 46L251 45L310 45L310 42C288.744 42 263.78 45.3825 244 39L244 0L240 0L240 33L238 33L238 0L237 0L237 30L235 30L235 0L233 0L233 27L231 27L231 0L230 0L230 25L229 25L228 0L225 0L225 21C220.025 16.1278 222 6.54538 222 0L217 0L217 16L216 16L216 0L214 0L214 15L213 15L212 0L208 0L208 12L207 12L207 0L205 0L205 10L203 10L203 0L198 0L198 8L197 8L196 0L191 0L191 5L187 0C184.007 0.0642395 182.654 -0.0539551 182 3L181 3L181 0L178 2L177 2L176 2L176 0L132 0L129 0L128 0L123 4L123 0L120 0L120 5L117 5L117 0L115 0L114 7L113 7L113 0L108 0L108 9L107 9L107 0L106 0L106 10L105 10L105 0L103 0C102.999 6.33466 103.092 10.7335 97 14L97 0L95 0L95 16L94 16L94 0L90 0L90 18L89 18L89 0L84 0L84 23L82 23L82 0L80 0C80 7.83954 82.6575 21.0074 77 27L77 0L75 0L74 31L73 31L73 0L71 0z"/>
<path style="fill:#555555; stroke:none;" d="M73 0L73 31L74 31L75 0L73 0M77 0L77 27C82.9882 22.6814 80 6.8782 80 0L77 0M82 0L82 23L84 23L84 0L82 0M89 0L89 18L90 18L89 0M94 0L94 16L95 16L94 0M97 0L97 14C103.772 11.6207 103 6.22281 103 0L97 0M105 0L105 10L106 10L105 0M107 0L107 9L108 9L107 0M113 0L113 7L114 7L115 0L113 0M117 0L117 5L120 5L120 0L117 0M123 0L123 4L128 0L123 0M129 0L129 2L132 2L132 0L129 0M134.667 0.333344L135.333 0.666656L134.667 0.333344M139 0L140 1L139 0M141 0L142 1L141 0M170 0L170 1L174 1L170 0M176 0L176 2L178 2L178 0L176 0M181 0L181 3L182 3L181 0M187 0L191 5L191 0L187 0M196 0L197 8L198 8L198 0L196 0M203 0L203 10L205 10L205 0L203 0M207 0L207 12L208 12L207 0M212 0L213 15L214 15L214 0L212 0M216 0L216 16L217 16L216 0M222 0C222 5.8186 219.636 17.5228 225 21L225 0L222 0M228 0L229 25L230 25L230 0L228 0M231 0L231 27L233 27L233 0L231 0M235 0L235 30L237 30L237 0L235 0M238 0L238 33L240 33L240 0L238 0M244 0L244 39C260.701 47.5915 290.978 42 310 42L310 0L244 0M179 1L180 2L179 1z"/>
<path style="fill:#d7222a; stroke:none;" d="M95 144C87.3061 142.842 83.0462 138.366 79 132L97 130C87.1583 123.807 77.2208 123.82 70.108 113C58.5244 95.3798 64.9164 71.2843 83 60.8796C93.5563 54.806 106.121 54 118 54L118 55C108.449 57.2634 96.7975 61.4455 90.2137 69.0154C80.9004 79.724 84.9241 94.1021 98 98.9066C109.62 103.176 119.366 97.5488 131 97.0394C142.068 96.5547 149.711 101.816 160 103.57C166.465 104.672 173.219 101.323 180 102.3C190.516 103.816 199.264 114.037 210 112.37C238.084 108.007 235.996 82.7256 220 66C246.024 68.1257 256.692 101.213 241.471 121C237.788 125.787 233.107 130.07 228 133.289C225.69 134.745 220.422 135.952 219.176 138.509C217.48 141.99 222.716 144.668 225 146L221 148L224 149L224 150C212.461 153.324 207.096 154.629 195 153L190 224C252.537 206.895 278.504 128.947 251.031 74C231.299 34.5372 189.217 12.7433 146 15.9113C129.366 17.1306 113.269 22.0652 99 30.8109C84.1689 39.9011 70.7458 52.6534 62.3117 68C49.6852 90.9751 44.2303 118.049 49.6651 144C50.7395 149.13 51.8473 159.77 56.4992 162.972C59.7218 165.19 64.8099 163.62 68 162.204C76.3584 158.493 90.1842 151.938 95 144z"/>
<path style="fill:#555555; stroke:none;" d="M217 16L218 17L217 16M219 17L220 18L219 17M81 23L82 24L81 23z"/>
<path style="fill:#9b9b9b; stroke:none;" d="M0 44L0 46C17.9747 46 41.7894 50.0872 59 45L40 44L0 44z"/>
<path style="fill:#555555; stroke:none;" d="M59 44L58 46L60 46L59 44M251 45L251 46L310 46L291 45L251 45M0 46L0 51L42 51C48.2091 51 54.8028 52.3392 58 46L0 46M254 50L254 51C265.576 61.6257 294.661 56 310 56L310 53L258 53L258 52L310 52L310 51C292.299 51 271.232 54.1026 254 50z"/>
<path style="fill:#d7d7d7; stroke:none;" d="M255 50L255 51L310 51L292 50L255 50M0 51L0 52L54 52L36 51L0 51z"/>
<path style="fill:#9b9b9b; stroke:none;" d="M54 51L55 52L54 51z"/>
<path style="fill:#555555; stroke:none;" d="M0 52L0 53L54 53L36 52L0 52z"/>
<path style="fill:#0b0b0b; stroke:none;" d="M258 52L258 53L310 53L293 52L258 52z"/>
<path style="fill:#d7d7d7; stroke:none;" d="M0 56L0 57L51 57C37.8727 51.4916 14.3108 56 0 56z"/>
<path style="fill:#555555; stroke:none;" d="M51 56L52 57L51 56z"/>
<path style="fill:#9b9b9b; stroke:none;" d="M259 57L260 58L259 57z"/>
<path style="fill:#d7d7d7; stroke:none;" d="M260 57L260 58L310 58C297.11 52.5913 274.049 57 260 57z"/>
<path style="fill:#555555; stroke:none;" d="M261 59L261 60L310 60C297.348 54.691 274.788 59 261 59M0 60L0 61L49 62L36 60L0 60z"/>
<path style="fill:#9b9b9b; stroke:none;" d="M261 60L261 61L310 61C297.348 55.691 274.788 60 261 60M0 61L0 62L48 62C35.5857 56.7908 13.5265 61 0 61z"/>
<path style="fill:#555555; stroke:none;" d="M262 61C264.749 65.9856 269.895 65 275 65L310 65L310 63L263 63L263 62L310 62C297.586 56.7907 275.526 61 262 61z"/>
<path style="fill:#d7d7d7; stroke:none;" d="M263 62L264 63L263 62z"/>
<path style="fill:#9b9b9b; stroke:none;" d="M264 62L264 63L310 63C298.061 57.9902 277.003 62 264 62z"/>
<path style="fill:#555555; stroke:none;" d="M0 63L0 65L47 65L47 63L0 63M0 66L0 69L44 70L46 66L0 66M0 70L0 72L43 72L43 70L0 70M266 70C268.85 73.9511 273.503 73 278 73L310 73L310 70L266 70M0 73L0 78L39 78L39 79L0 79L0 81L39 82L42 73L0 73M270 77L270 78L310 78C299.488 73.589 281.434 77 270 77z"/>
<path style="fill:#0b0b0b; stroke:none;" d="M0 78L0 79L39 79C28.726 74.6889 11.1724 78 0 78z"/>
<path style="fill:#555555; stroke:none;" d="M271 81L271 83L310 83L310 81L271 81M272 85L272 86L310 87L310 85L272 85M36 86L0 87L0 88L28 88L36 86M274 90L274 91L310 91C300.44 86.9886 284.387 90 274 90M275 94L275 95L310 95L275 94M276 100L276 101L310 101L276 100M277 103L277 105L310 105L310 103L277 103M277 108L277 109L310 110L310 108L277 108M0 109L0 111L32 111L32 109L0 109M278 113L278 114L310 114L278 113M0 114L0 115L32 115L0 114M278 116L278 117L310 117L278 116M278 119L278 127L310 127L310 119L278 119M0 121L0 124L32 125L32 121L0 121M0 127L0 129L32 129L32 127L0 127M278 128L278 130L310 130L310 128L278 128M0 130L0 131L32 131L0 130M278 131L278 132L310 132L278 131M0 132L0 133L33 133L0 132M278 135L278 136L310 136L278 135z"/>
<path style="fill:#d7222a; stroke:none;" d="M122 137C123.583 148.746 129.425 153.149 141 151L141 150L122 137z"/>
<path style="fill:#555555; stroke:none;" d="M277 138L278 139L277 138M0 140L0 142L33 142L33 140L0 140z"/>
<path style="fill:#d7222a; stroke:none;" d="M186 140C179.25 146.971 177.781 148.665 169 152C177.21 156.918 190.03 150.35 186 140z"/>
<path style="fill:#555555; stroke:none;" d="M277 142L277 143L310 143L277 142M0 144L0 146L34 146L34 144L0 144M276 146L277 147L276 146z"/>
<path style="fill:#9b9b9b; stroke:none;" d="M0 149L0 150L35 150L0 149z"/>
<path style="fill:#555555; stroke:none;" d="M0 151L0 153L36 153C28.5839 147.382 9.21368 151 0 151z"/>
<path style="fill:#9b9b9b; stroke:none;" d="M274 154L275 155L274 154z"/>
<path style="fill:#555555; stroke:none;" d="M275 154L275 155L310 155L275 154z"/>
<path style="fill:#9b9b9b; stroke:none;" d="M0 155L0 156L36 156C26.4404 151.989 10.387 155 0 155z"/>
<path style="fill:#555555; stroke:none;" d="M36 155L0 156L0 157L28 157L36 155z"/>
<path style="fill:#9b9b9b; stroke:none;" d="M0 157L0 158L37 158C27.2021 153.889 10.6488 157 0 157z"/>
<path style="fill:#555555; stroke:none;" d="M0 158L0 159L37 159C27.2022 154.889 10.6488 158 0 158M272 161L310 161L310 159L282 158.999L272 161M0 160L0 161L38 161C27.964 156.789 10.9106 160 0 160M0 162L0 164L39 164L39 162L0 162M0 165L0 166L38 166C27.964 161.789 10.9106 165 0 165z"/>
<path style="fill:#9b9b9b; stroke:none;" d="M38 165L39 166L38 165z"/>
<path style="fill:#555555; stroke:none;" d="M39 165L40 166L39 165M270 165L270 166L310 166C299.488 161.589 281.434 165 270 165M0 168L0 170L41 170L40 167L0 168M270 169L310 168L280 167L270 169M268 171L268 172L310 172C299.012 167.389 279.957 171 268 171M0 172L0 174L43 174L43 172L0 172M266 174L266 175L310 175C298.537 170.19 278.48 174 266 174M0 176L0 180L46 180C43.9286 174.847 38.8355 176 34 176L0 176M145 180L146 181L145 180z"/>
<path style="fill:#d7d7d7; stroke:none;" d="M170 193C169.725 181.306 153.953 175.6 144.108 181.933C141.136 183.845 137.429 190.299 142.243 192.382C146.677 194.301 153.093 190.626 158 191.301C162.082 191.863 165.844 192.914 170 193z"/>
<path style="fill:#9b9b9b; stroke:none;" d="M148 180L149 181L148 180z"/>
<path style="fill:#555555; stroke:none;" d="M149.667 180.333L150.333 180.667L149.667 180.333M156 180L156 181L159 181L156 180z"/>
<path style="fill:#9b9b9b; stroke:none;" d="M159 180L159 181L164 181L159 180z"/>
<path style="fill:#555555; stroke:none;" d="M164 180L165 181L164 180M263 180L263 182L310 182L310 180L263 180z"/>
<path style="fill:#9b9b9b; stroke:none;" d="M144 181L145 182L144 181z"/>
<path style="fill:#555555; stroke:none;" d="M166 181L167 182L166 181M0 182L0 183L48 183C35.5857 177.791 13.5265 182 0 182M167 182L168 183L167 182M260 188L310 188L310 183L273 183C267.44 183 262.211 181.986 260 188M0 185L0 190L52 190L49 184L0 185z"/>
<path style="fill:#9b9b9b; stroke:none;" d="M168 184L169 185L168 184M140 185L141 186L140 185M145 185L146 186L145 185M164.333 185.667L164.667 186.333L164.333 185.667z"/>
<path style="fill:#555555; stroke:none;" d="M169 185L170 186L169 185M145.667 186.333L146.333 186.667L145.667 186.333z"/>
<path style="fill:#9b9b9b; stroke:none;" d="M162 186L163 187L162 186z"/>
<path style="fill:#0b0b0b; stroke:none;" d="M163 186L161 187L161 188L163 186z"/>
<path style="fill:#9b9b9b; stroke:none;" d="M169 186L170 187L169 186z"/>
<path style="fill:#555555; stroke:none;" d="M139 187L140 188L139 187z"/>
<path style="fill:#0b0b0b; stroke:none;" d="M146 187L146 188L149 189L146 187z"/>
<path style="fill:#9b9b9b; stroke:none;" d="M149.333 187.667L149.667 188.333L149.333 187.667z"/>
<path style="fill:#555555; stroke:none;" d="M160 187L163 189L163 188L160 187M163 187L164 188L163 187z"/>
<path style="fill:#9b9b9b; stroke:none;" d="M139 188L140 189L139 188z"/>
<path style="fill:#555555; stroke:none;" d="M147 188L148 189L147 188z"/>
<path style="fill:#9b9b9b; stroke:none;" d="M160 188L161 189L160 188z"/>
<path style="fill:#555555; stroke:none;" d="M170 188L171 189L170 188z"/>
<path style="fill:#9b9b9b; stroke:none;" d="M170 189L170 192L171 192L170 189z"/>
<path style="fill:#555555; stroke:none;" d="M257 190L257 191L310 190L294 189L257 190z"/>
<path style="fill:#9b9b9b; stroke:none;" d="M139 190L140 191L139 190M257 193L310 193L310 190L271 190C266.259 190 259.854 188.598 257 193z"/>
<path style="fill:#555555; stroke:none;" d="M139 191L140 192L139 191z"/>
<path style="fill:#9b9b9b; stroke:none;" d="M150 191L150 193L152 193L150 191z"/>
<path style="fill:#555555; stroke:none;" d="M151 191L151 192L158 192L151 191z"/>
<path style="fill:#9b9b9b; stroke:none;" d="M157 193L160 191L157 193z"/>
<path style="fill:#555555; stroke:none;" d="M0 192L0 193L38 193L54 195C54.7411 190.505 45.0025 192 42 192L0 192z"/>
<path style="fill:#9b9b9b; stroke:none;" d="M140 192L141 193L140 192z"/>
<path style="fill:#555555; stroke:none;" d="M147 192L147 193L150 193L147 192z"/>
<path style="fill:#d7d7d7; stroke:none;" d="M147 194L147 195C151.959 196.565 158.792 198.004 162 193L147 194z"/>
<path style="fill:#555555; stroke:none;" d="M159 192L159 193L163 194L159 192z"/>
<path style="fill:#9b9b9b; stroke:none;" d="M163 192L164 193L163 192z"/>
<path style="fill:#555555; stroke:none;" d="M170 192L171 193L170 192M256 192L251 201L310 201L310 193L256 192z"/>
<path style="fill:#9b9b9b; stroke:none;" d="M0 193L0 194L53 194L53 195L0 195L0 196C18.006 196 39.4725 192.827 57 197C52.5779 191.776 46.3055 193 40 193L0 193z"/>
<path style="fill:#555555; stroke:none;" d="M142 193L142 194L145 194L142 193z"/>
<path style="fill:#9b9b9b; stroke:none;" d="M147 193L148 194L147 193z"/>
<path style="fill:#555555; stroke:none;" d="M166.667 193.333L167.333 193.667L166.667 193.333z"/>
<path style="fill:#9b9b9b; stroke:none;" d="M168 193L169 194L168 193z"/>
<path style="fill:#555555; stroke:none;" d="M169 193L170 194L169 193M0 194L0 195L53 195L36 194L0 194z"/>
<path style="fill:#9b9b9b; stroke:none;" d="M162 194L163 195L162 194z"/>
<path style="fill:#555555; stroke:none;" d="M147 195L148 196L147 195z"/>
<path style="fill:#9b9b9b; stroke:none;" d="M161 195L162 196L161 195z"/>
<path style="fill:#d7d7d7; stroke:none;" d="M0 196L0 198L57 198L40 196L0 196z"/>
<path style="fill:#555555; stroke:none;" d="M149.667 196.333L150.333 196.667L149.667 196.333z"/>
<path style="fill:#9b9b9b; stroke:none;" d="M151 196L151 197L154 197L151 196M156 196L156 197L159 197L156 196z"/>
<path style="fill:#555555; stroke:none;" d="M159 196L160 197L159 196M57 197L40 199L0 199L0 201L45 201C50.6442 201 57.9007 199.38 61 205L0 205L0 208L64 208L57 197z"/>
<path style="fill:#9b9b9b; stroke:none;" d="M0 198L0 199L57 199L39 198L0 198M0 201L0 202L60 202L41 201L0 201z"/>
<path style="fill:#555555; stroke:none;" d="M249 201L250 202L249 201z"/>
<path style="fill:#9b9b9b; stroke:none;" d="M247 204L248 206L244 207L244 252C251.995 251.397 256.203 243.828 263 240.263C267.197 238.062 271.934 238.007 276 235.974C281.053 233.447 284.471 228.934 290 226.965C295.78 224.907 306.488 221.796 309.397 215.61C311.006 212.187 310 206.712 310 203L250 203L250 202L310 202C305.28 200.019 299.08 201 294 201C280.998 201 257.979 196.584 247 204z"/>
<path style="fill:#d7d7d7; stroke:none;" d="M0 202L0 204L61 204L61 202L0 202M250 202L250 203L310 203L291 202L250 202z"/>
<path style="fill:#555555; stroke:none;" d="M247.667 203.333L248.333 203.667L247.667 203.333z"/>
<path style="fill:#9b9b9b; stroke:none;" d="M0 204L0 205L61 205L41 204L0 204z"/>
<path style="fill:#555555; stroke:none;" d="M247 205L248 206L247 205M246 206L247 207L246 206z"/>
<path style="fill:#9b9b9b; stroke:none;" d="M0 208L0 209L67 209L67 239L69 251L69 222C69 218.611 69.9536 213.287 67.9722 210.318C65.1968 206.159 55.3123 208 51 208L0 208z"/>
<path style="fill:#555555; stroke:none;" d="M243 208L243 253L242 253L241 211L240 211L239 239L239 293L240 293L240 253L241 253C241 267.96 238.525 284.995 244 299L250 299L245 319C252.136 314.94 255.435 299.581 258 292L250 292L250 291L258 291L258 245L244 252C244 239.52 247.81 219.463 243 208z"/>
<path style="fill:#d7d7d7; stroke:none;" d="M0 209C0.113543 218.586 7.68976 219.691 15 223.873C30.7483 232.882 49.4639 243.999 67 249L67 209L0 209z"/>
<path style="fill:#555555; stroke:none;" d="M69 211L69 251L70 251C70 239.566 73.411 221.512 69 211M72 214L72 253L74 253C74 243.205 77.9533 221.858 72 214M236 215L236 292L237 292L237 239L236 215z"/>
<path style="fill:#9b9b9b; stroke:none;" d="M0 216L1 217L0 216z"/>
<path style="fill:#555555; stroke:none;" d="M1 217L2 218L1 217z"/>
<path style="fill:#9b9b9b; stroke:none;" d="M2 217L3 218L2 217z"/>
<path style="fill:#555555; stroke:none;" d="M75 217L75 254L76 254C76 243.351 79.1113 226.798 75 217M234 217L234 254L235 254C235 243.351 238.111 226.798 234 217M308 217L309 218L308 217M3 218L4 219L3 218z"/>
<path style="fill:#9b9b9b; stroke:none;" d="M4 218L5 219L4 218z"/>
<path style="fill:#555555; stroke:none;" d="M77 218L78 292L79 292C79 273.951 80 256.004 80 238C80 231.653 81.8345 222.734 77 218M232 218L232 273C232 278.06 229.986 288.492 234 292L233 239L232 218M306 218L307 219L306 218M5 219L6 220L5 219z"/>
<path style="fill:#9b9b9b; stroke:none;" d="M6 219L7 220L6 219z"/>
<path style="fill:#555555; stroke:none;" d="M304 219L305 220L304 219M7 220L8 221L7 220z"/>
<path style="fill:#9b9b9b; stroke:none;" d="M8 220L9 221L8 220z"/>
<path style="fill:#555555; stroke:none;" d="M229 220C223.255 225.935 225 234.232 225 242L225 292L227 292L227 223L228 223L228 274C228 278.901 226.101 288.593 230 292L230 242L229 220M302 220L303 221L302 220M9 221L10 222L9 221z"/>
<path style="fill:#9b9b9b; stroke:none;" d="M10 221L11 222L10 221z"/>
<path style="fill:#555555; stroke:none;" d="M11 222L12 223L11 222z"/>
<path style="fill:#9b9b9b; stroke:none;" d="M12 222L13 223L12 222z"/>
<path style="fill:#555555; stroke:none;" d="M82 222L81 293L82 293L83 243L82 222M13 223L14 224L13 223z"/>
<path style="fill:#9b9b9b; stroke:none;" d="M14 223L15 224L14 223z"/>
<path style="fill:#555555; stroke:none;" d="M15 224L16 225L15 224z"/>
<path style="fill:#9b9b9b; stroke:none;" d="M16 224L17 225L16 224z"/>
<path style="fill:#555555; stroke:none;" d="M84 224C88.0272 240.915 83 258.975 83 276C83 286.386 80.3142 294.99 93 295C92.0533 287.509 93.1894 279.308 91.6096 272C89.534 262.399 86 256.306 86 246C86 240.473 88.3445 227.796 84 224M17 225L18 226L17 225M18 226C22.8764 246.482 19 271.945 19 293L20 293L20 243C20 238.142 21.9758 229.221 18 226z"/>
<path style="fill:#9b9b9b; stroke:none;" d="M19 226L20 227L19 226z"/>
<path style="fill:#555555; stroke:none;" d="M87 226L87 260L89 260L89 226L87 226M220 226C220 233.358 216.432 255.134 222 260L220 226M290 226C294.876 246.482 291 271.945 291 293L297 293C292.124 272.518 296 247.055 296 226L290 226M288 227L289 228L288 227M21 228L21 293L22 293L22 249L21 228z"/>
<path style="fill:#9b9b9b; stroke:none;" d="M22 228L23 229L22 228z"/>
<path style="fill:#555555; stroke:none;" d="M90 228L90 259C96.3709 254.87 93 235.149 93 228L90 228M218 228C215.535 236.339 215.535 250.661 218 259L219 259L218 228M286 228L287 229L286 228z"/>
<path style="fill:#9b9b9b; stroke:none;" d="M23 229L31 232L31 231L23 229z"/>
<path style="fill:#555555; stroke:none;" d="M284 229L285 230L284 229M23 230L23 280C23 285.807 21.2001 293.802 27 297L25 250L23 230M94 230L94 257L96 257L96 230L94 230M282 230L283 231L282 230M31 232L32 233L31 232z"/>
<path style="fill:#9b9b9b; stroke:none;" d="M32 232L33 233L32 232z"/>
<path style="fill:#555555; stroke:none;" d="M210 232L211 255L209 255L209 234L208 234L208 256L212 256C212 250.132 214.565 235.989 210 232M33 233L34 234L33 233z"/>
<path style="fill:#9b9b9b; stroke:none;" d="M34 233L35 234L34 233M209 233L209 255L211 255L211 233L209 233z"/>
<path style="fill:#555555; stroke:none;" d="M35 234L36 235L35 234z"/>
<path style="fill:#9b9b9b; stroke:none;" d="M36 234L37 235L36 234z"/>
<path style="fill:#555555; stroke:none;" d="M37 235L38 236L37 235z"/>
<path style="fill:#9b9b9b; stroke:none;" d="M38 235L39 236L38 235z"/>
<path style="fill:#555555; stroke:none;" d="M104 235L104 255L137 255L137 254L123 254L125 250L125 249L113 252L112 237L111 237C111 242.897 112.29 249.456 108 254C108 248.159 110.41 237.577 104 235M205 235L205 254C197.131 252.359 199 244.457 199 238L198 238L196 252L196 253L199 253L199 254L179 254L180 250L177 251L177 244L176 244L177 252L175 244L174 244L173 254L206 255L205 235M39 236L40 237L39 236z"/>
<path style="fill:#9b9b9b; stroke:none;" d="M40 236L41 237L40 236z"/>
<path style="fill:#555555; stroke:none;" d="M41 237L42 238L41 237z"/>
<path style="fill:#9b9b9b; stroke:none;" d="M42 237L43 238L42 237z"/>
<path style="fill:#0b0b0b; stroke:none;" d="M106 237L107 238L106 237z"/>
<path style="fill:#555555; stroke:none;" d="M268 237L268 238L275 238L268 237M43 238L44 239L43 238z"/>
<path style="fill:#9b9b9b; stroke:none;" d="M44 238L45 239L44 238z"/>
<path style="fill:#555555; stroke:none;" d="M266 238L267 239L266 238M45 239L46 240L45 239z"/>
<path style="fill:#9b9b9b; stroke:none;" d="M46 239L47 240L46 239z"/>
<path style="fill:#555555; stroke:none;" d="M192 239L192 251L189 250L189 251L195 252L196 239L192 239M264 239L265 240L264 239M47 240L48 241L47 240z"/>
<path style="fill:#9b9b9b; stroke:none;" d="M48 240L49 241L48 240z"/>
<path style="fill:#555555; stroke:none;" d="M262 240L263 241L262 240M49 241L50 242L49 241z"/>
<path style="fill:#9b9b9b; stroke:none;" d="M50 241L51 242L50 241z"/>
<path style="fill:#555555; stroke:none;" d="M260 241L261 242L260 241M51 242L52 243L51 242z"/>
<path style="fill:#9b9b9b; stroke:none;" d="M52 242L53 243L52 242z"/>
<path style="fill:#555555; stroke:none;" d="M258 242L259 243L258 242M53 243L54 244L53 243M128 243L127 251L128 251L128 243M181 243L182 251L183 251L181 243M257 243L258 244L257 243M54 244L55 245L54 244M133 244L131 250L131 251L135 251L133 244M136 244L136 251L137 251L138 244L136 244M256 244L257 245L256 244M55 245L56 246L55 245M140 245L141 246L140 245M142 245C141.622 249.783 139.577 254.81 144 258L144 245L142 245M145 245L145 252L150 251L150 250L148 245L147 245L147 251L146 251L145 245M151 245C151.28 253.529 156.532 249.508 161 254L151 254L151 255L162 255L163 245L162 245L162 251L159 251L159 245L158 245L158 251L152 251L151 245M164 245L164 251L165 251L164 245M166 245L167 251L168 251L168 245L166 245M255 245L256 246L255 245M57 246L58 247L57 246M59 246L60 247L59 246z"/>
<path style="fill:#9b9b9b; stroke:none;" d="M60 246L61 247L60 246z"/>
<path style="fill:#555555; stroke:none;" d="M254 246L255 247L254 246M61 247L62 248L61 247z"/>
<path style="fill:#9b9b9b; stroke:none;" d="M62 247L63 248L62 247z"/>
<path style="fill:#555555; stroke:none;" d="M253 247L254 248L253 247M63 248L64 249L63 248z"/>
<path style="fill:#9b9b9b; stroke:none;" d="M64 248L65 249L64 248z"/>
<path style="fill:#555555; stroke:none;" d="M252 248L253 249L252 248M65 249L66 250L65 249M184 249L184 250L188 250L184 249M251 249L252 250L251 249M67 250L68 251L67 250M139 250L139 256L140 256L139 250M169 250L169 258L170 258L169 250M250 250L251 251L250 250z"/>
<path style="fill:#d7d7d7; stroke:none;" d="M140 283L149 288L149 251C142.742 254.485 147.899 260.337 147.288 266C146.613 272.258 142.589 277.455 140 283z"/>
<path style="fill:#9b9b9b; stroke:none;" d="M149 251L149 289L150 289C150 278.089 153.211 261.036 149 251M143 252L147 260L146 252L143 252z"/>
<path style="fill:#0b0b0b; stroke:none;" d="M106 253L107 254L106 253M111 253L112 254L111 253z"/>
<path style="fill:#9b9b9b; stroke:none;" d="M233 254L233 291L234 291C234 280.351 237.111 263.798 233 254z"/>
<path style="fill:#0b0b0b; stroke:none;" d="M242 254L242 293L243 293C243 281.828 246.311 264.274 242 254z"/>
<path style="fill:#555555; stroke:none;" d="M144 259L145 260L144 259M146 260L147 261L146 260M173.667 260.333L174.333 260.667L173.667 260.333z"/>
<path style="fill:#9b9b9b; stroke:none;" d="M145.667 261.333L146.333 261.667L145.667 261.333z"/>
<path style="fill:#555555; stroke:none;" d="M135 262L136 263L135 262z"/>
<path style="fill:#9b9b9b; stroke:none;" d="M147 262L147 266L148 266L147 262z"/>
<path style="fill:#555555; stroke:none;" d="M161 262L161 266L162 266L161 262M173 262L176 265L173 262M219 262L219 295L220 295L219 262M131 263L131 266L133 265L133 264L131 263z"/>
<path style="fill:#9b9b9b; stroke:none;" d="M163 264L163 266L165 266L163 264z"/>
<path style="fill:#d7d7d7; stroke:none;" d="M164 264L165 265L164 264z"/>
<path style="fill:#555555; stroke:none;" d="M134 267L137 265L134 267M145.667 266.333L146.333 266.667L145.667 266.333M217 266L214 298C220.72 295.77 219.481 271.913 217 266z"/>
<path style="fill:#9b9b9b; stroke:none;" d="M145 267L145 269L147 269L147 267L145 267M162 267L162 268L165 268L162 267z"/>
<path style="fill:#555555; stroke:none;" d="M165 267L166 268L165 267M144 268L147 270L147 269L144 268M174 268L174 271L176 271L176 268L174 268M162 269L162 270L166 270L162 269z"/>
<path style="fill:#9b9b9b; stroke:none;" d="M146 270L147 271L146 270z"/>
<path style="fill:#555555; stroke:none;" d="M142 271L138 273L138 280L132 274L131 274L131 289L127 288L127 309L131 309L131 310L127 310C129.724 315.448 134.019 311.505 136 312L134 310L134 309C138.416 308.054 137 302.77 137 299C137 290.965 136.938 281.163 144 276L142 271M161 277L162 277L162 273L163 273L164 276L166 271C162.186 271.661 161.43 273.259 161 277z"/>
<path style="fill:#9b9b9b; stroke:none;" d="M145 272L146 273L145 272z"/>
<path style="fill:#555555; stroke:none;" d="M174 272L174 274L176 274L176 272L174 272z"/>
<path style="fill:#9b9b9b; stroke:none;" d="M136 273L136 279L137 279L136 273M144 274L145 275L144 274z"/>
<path style="fill:#555555; stroke:none;" d="M174 275L174 277L176 275L174 275z"/>
<path style="fill:#0b0b0b; stroke:none;" d="M142 276L143 277L142 276z"/>
<path style="fill:#9b9b9b; stroke:none;" d="M143 276L144 277L143 276M142 278L143 279L142 278z"/>
<path style="fill:#555555; stroke:none;" d="M172 278L172 279L176 280L172 278z"/>
<path style="fill:#0b0b0b; stroke:none;" d="M140 279L141 280L140 279z"/>
<path style="fill:#d7d7d7; stroke:none;" d="M172 279L172 287L173 287L175 279L172 279z"/>
<path style="fill:#9b9b9b; stroke:none;" d="M140 281L141 282L140 281z"/>
<path style="fill:#555555; stroke:none;" d="M169 281L170 296L176 296L178 307C172.45 308.214 178.737 318.27 182 320L183 288C177.994 288.574 174.894 288.602 174 283L173 283L173 287L170 287L169 281M174 281L175 282L174 281M200 281L191 286C191.069 291.842 192.525 295.503 199 295L195 297L197 301L200 301L202 306L200 281z"/>
<path style="fill:#9b9b9b; stroke:none;" d="M141 283L142 284L141 283z"/>
<path style="fill:#555555; stroke:none;" d="M164 283L164 287L165 287L164 283z"/>
<path style="fill:#9b9b9b; stroke:none;" d="M143 284L144 285L143 284z"/>
<path style="fill:#555555; stroke:none;" d="M115 285L115 286L118 286L115 285z"/>
<path style="fill:#9b9b9b; stroke:none;" d="M145 285L146 286L145 285M115 286C115 292.232 117.692 306.31 112 310L112 311C121.467 309.026 118 293.572 118 286L115 286z"/>
<path style="fill:#555555; stroke:none;" d="M146 286L147 287L146 286M147 287L148 288L147 287M148 288L149 289L148 288z"/>
<path style="fill:#9b9b9b; stroke:none;" d="M128 289L129 290L128 289M176 290L177 291L176 290M229 290L230 291L229 290z"/>
<path style="fill:#0b0b0b; stroke:none;" d="M197 292L198 293L197 292z"/>
<path style="fill:#555555; stroke:none;" d="M221 292L222 293L221 292z"/>
<path style="fill:#9b9b9b; stroke:none;" d="M292 292L292 293L295 293L292 292z"/>
<path style="fill:#d7d7d7; stroke:none;" d="M295 292L292 293L292 294L295 292z"/>
<path style="fill:#9b9b9b; stroke:none;" d="M193 293L193 294L197 294L193 293M216 293L217 294L216 293M296 293L297 294L296 293z"/>
<path style="fill:#555555; stroke:none;" d="M293 294L293 296L297 296L297 294L293 294z"/>
<path style="fill:#9b9b9b; stroke:none;" d="M194 295L194 296L197 296L194 295M215 295L216 296L215 295z"/>
<path style="fill:#555555; stroke:none;" d="M85 298L94 297C90.9109 295.704 87.3075 295.359 85 298M270 296L274 305L277 305C276.947 299.173 276.319 296.21 270 296z"/>
<path style="fill:#9b9b9b; stroke:none;" d="M86 297L86 298L94 298L86 297z"/>
<path style="fill:#555555; stroke:none;" d="M295 297L295 298L298 298L295 297M10.6667 298.333L11.3333 298.667L10.6667 298.333M13 298L10 304L15 298L13 298M74 298L74 302L76 302L76 298L74 298z"/>
<path style="fill:#0b0b0b; stroke:none;" d="M198 298L199 299L198 298z"/>
<path style="fill:#9b9b9b; stroke:none;" d="M213 298L214 299L213 298z"/>
<path style="fill:#d7d7d7; stroke:none;" d="M214.667 298.333L215.333 298.667L214.667 298.333z"/>
<path style="fill:#9b9b9b; stroke:none;" d="M216 298L217 299L216 298z"/>
<path style="fill:#555555; stroke:none;" d="M228 298L224 305C227.449 303.849 229.179 301.616 228 298M232 298L236 302L232 298M86 299L86 300L94 300L86 299M213 299L213 300L216 300L213 299z"/>
<path style="fill:#9b9b9b; stroke:none;" d="M272 299L272 300L276 300L272 299z"/>
<path style="fill:#555555; stroke:none;" d="M296 299L296 300L299 302L300 302L296 299z"/>
<path style="fill:#d7d7d7; stroke:none;" d="M14 300L15 301L14 300z"/>
<path style="fill:#9b9b9b; stroke:none;" d="M15 300L14 302L16 302L15 300z"/>
<path style="fill:#555555; stroke:none;" d="M25.6667 300.333L26.3333 300.667L25.6667 300.333M69 303L73 300L69 303z"/>
<path style="fill:#9b9b9b; stroke:none;" d="M198 300L199 301L198 300z"/>
<path style="fill:#555555; stroke:none;" d="M239.333 300.667L239.667 301.333L239.333 300.667M241.333 300.667L241.667 301.333L241.333 300.667z"/>
<path style="fill:#9b9b9b; stroke:none;" d="M297 300L298 301L297 300z"/>
<path style="fill:#d7d7d7; stroke:none;" d="M298.333 300.667L298.667 301.333L298.333 300.667z"/>
<path style="fill:#555555; stroke:none;" d="M85 301L85 304L94 302L94 309L95 309L95 301L85 301z"/>
<path style="fill:#d7d7d7; stroke:none;" d="M198.667 301.333L199.333 301.667L198.667 301.333z"/>
<path style="fill:#555555; stroke:none;" d="M214 301L215 302L214 301M237 301L238 302L237 301M297 301L298 302L297 301M96 302L96 309L100 309L96 302M163.667 302.333L164.333 302.667L163.667 302.333z"/>
<path style="fill:#9b9b9b; stroke:none;" d="M299 302L300 303L299 302M163 303L165 305L165 303L163 303M213.667 303.333L214.333 303.667L213.667 303.333z"/>
<path style="fill:#555555; stroke:none;" d="M263 303L264 304L263 303z"/>
<path style="fill:#d7d7d7; stroke:none;" d="M299 303L300 304L299 303z"/>
<path style="fill:#555555; stroke:none;" d="M300 303L301 304L300 303M24 304L24 305L27 305L24 304z"/>
<path style="fill:#9b9b9b; stroke:none;" d="M84 304L83 310L84 304z"/>
<path style="fill:#d7d7d7; stroke:none;" d="M85 304L85 308L86 308L89 305L85 304z"/>
<path style="fill:#9b9b9b; stroke:none;" d="M89 304L90 305L89 304z"/>
<path style="fill:#555555; stroke:none;" d="M163 304L166 308L163 304M174.667 304.333L175.333 304.667L174.667 304.333M213.667 304.333L214.333 304.667L213.667 304.333z"/>
<path style="fill:#9b9b9b; stroke:none;" d="M263 304L261 308L265 304L263 304M24 305L24 306L27 306L24 305M87 305L88 306L87 305z"/>
<path style="fill:#555555; stroke:none;" d="M89 305L89 310L90 310L89 305M261 305L262 306L261 305M23 306L23 311L26 306L23 306z"/>
<path style="fill:#9b9b9b; stroke:none;" d="M86 306L87 307L86 306z"/>
<path style="fill:#555555; stroke:none;" d="M191 306L191 320L201 319L191 306M224 306L224 307L227 307L224 306z"/>
<path style="fill:#d7d7d7; stroke:none;" d="M261 306L262 307L261 306z"/>
<path style="fill:#555555; stroke:none;" d="M263 306L266 308L263 306M291 306L295 311L291 306M81 307L82 308L81 307z"/>
<path style="fill:#9b9b9b; stroke:none;" d="M213 307L213 309L215 309L215 307L213 307z"/>
<path style="fill:#555555; stroke:none;" d="M260 307L261 308L260 307M39 308L39 309L54 310L54 320L56 320L55 308L39 308M68 308L69 309L68 308M82.3333 308.667L82.6667 309.333L82.3333 308.667M85 308L83 310L83 311C85.2508 310.527 86.1178 310.14 85 308M225 308L228 310L225 308z"/>
<path style="fill:#9b9b9b; stroke:none;" d="M292 308L293 309L292 308z"/>
<path style="fill:#555555; stroke:none;" d="M9 309L9 310L16 310L9 309M17 309C17.0031 313.06 16.4931 316.471 20 319L20 309L17 309M112 309L112 310L115 310L112 309M117 309L118 310L117 309z"/>
<path style="fill:#9b9b9b; stroke:none;" d="M146 309L147 310L146 309z"/>
<path style="fill:#d7d7d7; stroke:none;" d="M147 309L148 310L147 309z"/>
<path style="fill:#9b9b9b; stroke:none;" d="M148 309L149 310L148 309z"/>
<path style="fill:#555555; stroke:none;" d="M213 311L216 311L214 309L213 311z"/>
<path style="fill:#9b9b9b; stroke:none;" d="M10 310L16 315L16 310L10 310z"/>
<path style="fill:#555555; stroke:none;" d="M97 310C98.9511 313.335 101.008 313.297 103 310L102 310L97 310z"/>
<path style="fill:#9b9b9b; stroke:none;" d="M98 312L102 312C100.444 310.187 99.5556 310.187 98 312z"/>
<path style="fill:#555555; stroke:none;" d="M115 310L111 315L119 314L115 310z"/>
<path style="fill:#0b0b0b; stroke:none;" d="M131.333 310.667L131.667 311.333L131.333 310.667z"/>
<path style="fill:#9b9b9b; stroke:none;" d="M193 310L194 311L193 310M214 310L215 311L214 310M293 310L293 312L295 312L293 310z"/>
<path style="fill:#555555; stroke:none;" d="M70 311L71 312L70 311z"/>
<path style="fill:#9b9b9b; stroke:none;" d="M71 311L72 312L71 311z"/>
<path style="fill:#555555; stroke:none;" d="M72 311L71 313L71 314L74 314L74 315L72 315L72 316C75.7036 315.19 74.3062 312.977 72 311M146 311C144.785 313.723 143.665 315.267 147 316L147 315L145 314L148 311L146 311M235 311L235 313L237 311L235 311z"/>
<path style="fill:#d7d7d7; stroke:none;" d="M71.6667 312.333L72.3333 312.667L71.6667 312.333z"/>
<path style="fill:#555555; stroke:none;" d="M84 312L88 315L84 312z"/>
<path style="fill:#9b9b9b; stroke:none;" d="M115 312L115 313L118 313L115 312M194.667 312.333L195.333 312.667L194.667 312.333z"/>
<path style="fill:#555555; stroke:none;" d="M213 313L213 314L218 315L213 313M277.667 312.333L278.333 312.667L277.667 312.333M293 312C294.397 314.3 295.761 316.324 298 314L295 315L296 312L293 312z"/>
<path style="fill:#9b9b9b; stroke:none;" d="M71 314L72 315L71 314z"/>
<path style="fill:#d7d7d7; stroke:none;" d="M72.6667 314.333L73.3333 314.667L72.6667 314.333M145.667 314.333L146.333 314.667L145.667 314.333z"/>
<path style="fill:#9b9b9b; stroke:none;" d="M214 314L218 320C217.737 316.59 217.321 315.099 214 314M295.667 314.333L296.333 314.667L295.667 314.333z"/>
<path style="fill:#555555; stroke:none;" d="M15 315L16 316L15 315z"/>
<path style="fill:#9b9b9b; stroke:none;" d="M86.6667 315.333L87.3333 315.667L86.6667 315.333z"/>
<path style="fill:#555555; stroke:none;" d="M115 315L115 316L119 316L115 315z"/>
<path style="fill:#d7d7d7; stroke:none;" d="M72 316L72 317L75 317L72 316z"/>
<path style="fill:#9b9b9b; stroke:none;" d="M75 316L76 317L75 316z"/>
<path style="fill:#555555; stroke:none;" d="M86 316L86 317L87 319L94 320L86 316M214 316L215 317L214 316M258 316L257 319L261 320L258 316M267 316L267 318L269 316L267 316M278 316L279 319L280 319L280 316L278 316z"/>
<path style="fill:#9b9b9b; stroke:none;" d="M295 316L295 317L299 317L295 316z"/>
<path style="fill:#555555; stroke:none;" d="M72 319L76 318L72 319M168 317L166 320L170 320L168 317z"/>
<path style="fill:#9b9b9b; stroke:none;" d="M181 317L182 318L181 317M258 317L259 318L258 317z"/>
<path style="fill:#555555; stroke:none;" d="M295 317L295 318L301 320L295 317z"/>
<path style="fill:#d7d7d7; stroke:none;" d="M73 318L73 319L76 319L73 318z"/>
<path style="fill:#9b9b9b; stroke:none;" d="M76 318L73 319L73 320L76 318z"/>
<path style="fill:#555555; stroke:none;" d="M157 318L157 319L161 319L157 318M215 318L216 319L215 318M105 319L106 320L105 319M144 319L144 320L147 320L144 319z"/>
<path style="fill:#9b9b9b; stroke:none;" d="M157 319L157 320L161 320L157 319M196 319L196 320L201 320L196 319z"/>
<path style="fill:#555555; stroke:none;" d="M238.667 319.333L239.333 319.667L238.667 319.333z"/>
<path style="fill:#9b9b9b; stroke:none;" d="M257 319L257 320L260 320L257 319M296 319L296 320L300 320L296 319z"/>
</svg>
