<?xml version="1.0" standalone="no"?>
<!DOCTYPE svg PUBLIC "-//W3C//DTD SVG 20010904//EN"
 "http://www.w3.org/TR/2001/REC-SVG-20010904/DTD/svg10.dtd">
<svg version="1.0" xmlns="http://www.w3.org/2000/svg"
 width="460.000000pt" height="460.000000pt" viewBox="0 0 460.000000 460.000000"
 preserveAspectRatio="xMidYMid meet">

<g transform="translate(0.000000,460.000000) scale(0.100000,-0.100000)"
fill="#000000" stroke="none">
<path d="M2125 4345 c-27 -26 -34 -82 -13 -103 7 -7 31 -12 53 -12 50 0 73 21
82 72 4 29 1 38 -18 52 -34 23 -76 20 -104 -9z"/>
<path d="M2302 4344 c-19 -13 -22 -24 -22 -78 0 -82 14 -96 97 -96 78 0 93 15
93 93 0 76 -20 97 -93 97 -31 0 -61 -6 -75 -16z"/>
<path d="M2530 4285 l0 -55 55 0 55 0 0 55 0 55 -55 0 -55 0 0 -55z"/>
<path d="M1807 4320 c-49 -15 -57 -28 -57 -96 0 -86 13 -98 94 -90 89 10 110
29 114 103 4 77 -10 93 -76 92 -26 0 -60 -5 -75 -9z"/>
<path d="M2700 4250 l0 -50 70 0 70 0 0 50 0 50 -70 0 -70 0 0 -50z"/>
<path d="M2936 4254 c-16 -41 -7 -54 34 -54 39 0 40 1 40 35 0 33 -2 35 -34
35 -22 0 -36 -6 -40 -16z"/>
<path d="M1618 4249 c-39 -22 -14 -69 37 -69 17 0 36 5 43 12 40 40 -27 88
-80 57z"/>
<path d="M1470 4175 c0 -33 2 -35 35 -35 33 0 35 2 35 35 0 33 -2 35 -35 35
-33 0 -35 -2 -35 -35z"/>
<path d="M2937 4173 c-3 -5 -8 -27 -12 -50 -7 -43 -6 -43 23 -43 27 0 32 5 45
44 14 40 14 45 0 50 -21 8 -51 7 -56 -1z"/>
<path d="M1325 4147 c-12 -10 -18 -28 -19 -57 -1 -37 3 -46 25 -59 24 -13 29
-13 53 2 35 23 37 88 4 111 -27 20 -39 20 -63 3z"/>
<path d="M1622 4151 c-19 -12 -11 -52 13 -65 11 -6 22 -12 24 -14 3 -1 -10
-17 -28 -36 -42 -43 -24 -57 25 -19 33 24 64 75 64 102 0 32 -65 53 -98 32z"/>
<path d="M2700 4105 l0 -55 36 0 36 0 -7 -37 c-6 -38 -27 -63 -52 -63 -7 0
-13 -7 -13 -15 0 -18 57 -21 93 -4 36 16 47 50 47 144 l0 85 -70 0 -70 0 0
-55z"/>
<path d="M3122 4137 c-14 -16 -19 -68 -8 -85 10 -16 67 -15 90 1 13 9 17 23
14 52 -3 39 -4 40 -44 43 -25 2 -45 -2 -52 -11z"/>
<path d="M2114 4133 c-33 -6 -54 -36 -56 -76 -1 -41 15 -67 43 -67 11 0 19 -5
19 -11 0 -17 -59 -68 -86 -75 -17 -4 -24 -13 -24 -30 0 -20 5 -24 33 -24 38 0
103 35 128 70 35 47 47 158 21 197 -9 14 -49 22 -78 16z"/>
<path d="M2530 4039 l0 -101 54 49 c53 46 55 50 55 101 l1 52 -55 0 -55 0 0
-101z"/>
<path d="M2320 4103 c-28 -10 -40 -37 -40 -91 0 -61 13 -92 39 -92 10 0 20 -3
24 -6 10 -10 -13 -61 -39 -85 -24 -22 -33 -72 -16 -83 5 -3 24 -1 43 4 79 22
139 132 139 252 0 35 -4 68 -8 75 -17 26 -99 41 -142 26z"/>
<path d="M1470 4019 c0 -64 3 -66 48 -26 14 14 22 32 22 54 0 31 -2 33 -35 33
l-35 0 0 -61z"/>
<path d="M1812 4059 c-51 -15 -69 -88 -37 -149 13 -24 22 -30 50 -30 33 0 33
-1 24 -32 -10 -35 -53 -85 -81 -94 -14 -4 -18 -16 -18 -59 0 -62 12 -71 70
-55 49 13 95 65 115 132 22 71 32 262 15 283 -14 17 -85 19 -138 4z"/>
<path d="M3272 4044 c-46 -32 -17 -114 40 -114 28 0 58 37 58 69 0 31 -30 61
-60 61 -9 0 -26 -7 -38 -16z"/>
<path d="M2880 3985 l0 -65 60 0 60 0 0 65 0 65 -60 0 -60 0 0 -65z"/>
<path d="M3091 3996 c-7 -9 -14 -30 -14 -47 -2 -28 5 -38 41 -56 11 -5 -34
-53 -58 -63 -41 -17 -39 -40 3 -40 77 0 130 70 125 163 l-3 52 -41 3 c-27 2
-45 -2 -53 -12z"/>
<path d="M1050 3972 c-42 -21 -62 -57 -54 -97 10 -50 36 -68 103 -73 54 -4 62
-2 85 21 20 20 26 36 26 67 0 56 -14 77 -58 90 -50 14 -61 13 -102 -8z"/>
<path d="M1329 3963 c-56 -65 -84 -158 -55 -182 24 -20 62 -6 92 35 22 29 27
46 28 97 1 59 0 62 -25 65 -15 2 -31 -4 -40 -15z"/>
<path d="M3424 3965 c-8 -21 4 -35 32 -35 19 0 24 5 24 25 0 20 -5 25 -25 25
-14 0 -28 -7 -31 -15z"/>
<path d="M1530 3840 l0 -80 90 0 90 0 0 80 0 80 -90 0 -90 0 0 -80z"/>
<path d="M2550 3911 c-22 -6 -25 -12 -25 -56 l0 -50 42 1 c54 1 73 17 73 64 0
49 -24 59 -90 41z"/>
<path d="M3279 3913 c-10 -2 -20 -24 -27 -61 -7 -31 -15 -69 -18 -84 -5 -21
-2 -27 16 -33 39 -12 76 13 99 65 41 96 17 137 -70 113z"/>
<path d="M3452 3888 c-14 -18 -42 -87 -42 -104 0 -18 17 -18 35 0 20 19 46 88
41 103 -7 16 -21 17 -34 1z"/>
<path d="M2720 3875 c-22 -26 -8 -50 30 -50 32 0 35 3 38 33 3 30 1 32 -26 32
-16 0 -35 -7 -42 -15z"/>
<path d="M2856 3793 c-15 -37 -43 -99 -62 -138 -44 -92 -44 -94 -8 -109 l31
-14 42 82 c23 44 57 109 77 143 l35 62 -38 18 c-21 9 -41 18 -44 20 -3 2 -18
-27 -33 -64z"/>
<path d="M3570 3829 c-48 -10 -80 -50 -80 -99 0 -31 6 -43 32 -65 29 -25 38
-27 88 -22 43 5 60 12 78 32 63 73 -16 176 -118 154z"/>
<path d="M890 3815 c0 -8 7 -15 15 -15 8 0 15 7 15 15 0 8 -7 15 -15 15 -8 0
-15 -7 -15 -15z"/>
<path d="M2000 3786 c-28 -35 11 -93 48 -70 35 22 22 84 -18 84 -10 0 -23 -7
-30 -14z"/>
<path d="M2155 3777 c-13 -10 -16 -21 -11 -40 5 -22 12 -27 36 -27 24 0 31 5
36 27 5 19 2 30 -11 40 -11 7 -22 13 -25 13 -3 0 -14 -6 -25 -13z"/>
<path d="M894 3756 c4 -15 0 -28 -9 -36 -19 -16 -19 -30 0 -30 18 0 35 31 35
64 0 17 -5 26 -16 26 -12 0 -15 -6 -10 -24z"/>
<path d="M2726 3768 c-21 -12 -21 -64 0 -72 27 -10 -4 -39 -34 -31 -17 4 -23
2 -20 -7 13 -37 91 -9 109 40 20 52 -13 94 -55 70z"/>
<path d="M2550 3760 c-50 -9 -60 -17 -60 -49 0 -30 27 -61 53 -61 9 0 18 -4
21 -8 8 -13 -32 -72 -49 -72 -18 0 -32 -47 -18 -61 15 -15 61 0 82 28 23 28
41 104 41 168 0 52 -16 65 -70 55z"/>
<path d="M1043 3744 c-63 -32 -66 -110 -5 -146 27 -16 29 -16 61 9 41 33 65
22 69 -30 3 -33 -3 -43 -57 -99 -34 -34 -61 -63 -61 -65 0 -15 36 6 83 51 62
59 87 105 87 162 0 37 -23 95 -44 114 -24 19 -99 22 -133 4z"/>
<path d="M3010 3732 c-102 -50 -27 -159 85 -122 93 31 71 139 -30 140 -11 0
-36 -8 -55 -18z"/>
<path d="M1365 3733 c-88 -9 -115 -32 -115 -99 0 -69 12 -84 69 -84 52 0 111
17 123 34 4 6 8 36 8 67 0 70 -19 88 -85 82z"/>
<path d="M2317 3712 c-21 -23 -22 -46 -2 -62 19 -16 45 -9 62 17 13 19 12 24
-6 42 -26 26 -33 26 -54 3z"/>
<path d="M1526 3704 c-11 -29 -36 -158 -36 -188 0 -22 4 -27 16 -22 9 3 43 6
77 6 l62 1 33 102 c18 56 33 105 32 110 0 4 -40 7 -89 7 -72 0 -90 -3 -95 -16z"/>
<path d="M3229 3681 c-23 -23 -29 -38 -29 -71 0 -33 6 -48 29 -71 65 -64 171
-20 171 71 0 33 -6 48 -29 71 -23 23 -38 29 -71 29 -33 0 -48 -6 -71 -29z"/>
<path d="M2433 3662 c-26 -4 -25 -2 -28 -57 -1 -22 -5 -55 -9 -72 -7 -32 -6
-33 22 -33 26 0 32 5 40 33 12 39 15 124 5 129 -5 2 -18 2 -30 0z"/>
<path d="M1990 3639 c-13 -24 10 -69 36 -69 23 0 11 -24 -14 -28 -14 -2 -22
-11 -22 -24 0 -17 4 -19 27 -13 16 4 34 11 40 17 17 13 17 110 1 126 -19 19
-56 14 -68 -9z"/>
<path d="M2159 3594 c-32 -70 -32 -94 -1 -94 13 0 28 20 51 70 34 72 34 90 0
90 -15 0 -28 -17 -50 -66z"/>
<path d="M2257 3644 c-8 -8 1 -24 14 -24 5 0 9 7 9 15 0 15 -12 20 -23 9z"/>
<path d="M697 3555 c-4 -41 -4 -81 -1 -90 7 -16 67 -20 136 -9 41 7 41 7 52
122 l5 52 -93 0 -93 0 -6 -75z"/>
<path d="M2316 3614 c-18 -18 -20 -38 -6 -64 7 -13 7 -21 0 -25 -14 -9 -12
-25 3 -25 25 0 67 55 67 87 0 42 -35 57 -64 27z"/>
<path d="M1766 3568 c-7 -43 -9 -65 -7 -112 l1 -39 81 6 c44 3 83 7 85 10 2 2
8 41 12 85 l8 82 -88 0 -87 0 -5 -32z"/>
<path d="M2245 3590 c-3 -5 0 -19 7 -30 11 -19 10 -24 -11 -41 -17 -14 -19
-19 -8 -19 22 0 47 39 47 72 0 28 -22 39 -35 18z"/>
<path d="M2620 3570 c-17 -33 4 -62 43 -58 25 2 33 8 35 26 7 48 -56 73 -78
32z"/>
<path d="M3492 3568 c-58 -36 -52 -102 17 -159 l36 -29 -25 -46 c-15 -29 -45
-62 -80 -87 -79 -59 -86 -71 -44 -88 42 -15 87 6 145 69 66 72 120 184 121
253 1 42 -3 54 -27 79 -23 24 -37 30 -69 29 -23 0 -56 -10 -74 -21z"/>
<path d="M3766 3570 c-109 -70 -46 -215 85 -197 48 6 74 28 89 73 33 100 -83
182 -174 124z"/>
<path d="M3015 3567 c-55 -25 -65 -90 -21 -126 15 -13 14 -17 -16 -48 l-32
-33 30 0 c79 1 174 81 174 149 0 22 -6 44 -15 51 -22 18 -86 22 -120 7z"/>
<path d="M2794 3506 c-35 -16 -44 -32 -44 -82 0 -47 13 -69 49 -84 65 -27 141
17 141 81 0 51 -17 77 -57 88 -47 13 -51 13 -89 -3z"/>
<path d="M962 3483 c4 -32 17 -38 43 -19 16 12 17 16 6 30 -7 9 -22 16 -33 16
-15 0 -19 -6 -16 -27z"/>
<path d="M1307 3488 c-41 -11 -57 -36 -57 -89 0 -37 40 -79 75 -79 29 0 29 0
11 -45 -8 -19 -31 -44 -54 -59 -45 -28 -59 -66 -43 -109 12 -31 35 -34 84 -13
77 33 117 121 125 275 4 93 3 106 -14 118 -21 15 -72 15 -127 1z"/>
<path d="M556 3448 c-9 -12 -16 -30 -16 -40 0 -18 25 -48 41 -48 14 0 49 39
49 55 0 17 -35 55 -49 55 -6 0 -17 -10 -25 -22z"/>
<path d="M1626 3454 c-23 -22 -20 -71 3 -84 50 -26 97 3 87 54 -4 16 -12 34
-19 38 -20 13 -55 9 -71 -8z"/>
<path d="M3233 3446 c-24 -21 -28 -32 -28 -76 0 -44 4 -55 28 -76 21 -18 29
-36 34 -74 3 -27 8 -50 10 -50 15 0 89 82 104 115 31 68 20 146 -25 177 -25
17 -95 8 -123 -16z"/>
<path d="M2617 3444 c-3 -4 -2 -16 4 -26 13 -25 4 -79 -22 -130 -24 -46 -24
-58 -1 -58 50 0 101 81 102 161 0 34 -4 49 -16 53 -20 8 -59 8 -67 0z"/>
<path d="M1491 3426 c-7 -8 -11 -27 -9 -43 6 -52 88 -40 88 13 0 38 -56 58
-79 30z"/>
<path d="M697 3423 c-4 -3 -7 -40 -7 -81 0 -74 0 -74 25 -68 31 8 31 1 0 -49
-13 -22 -25 -45 -25 -51 0 -12 58 -44 78 -44 18 0 103 136 107 171 2 19 7 55
9 82 l6 47 -94 0 c-51 0 -96 -3 -99 -7z"/>
<path d="M1755 3347 c-10 -89 -5 -113 22 -110 21 2 21 2 -3 -42 l-25 -44 40
-21 40 -20 21 22 c49 52 78 121 85 201 l7 77 -90 0 -90 0 -7 -63z"/>
<path d="M960 3348 c0 -25 -8 -57 -19 -75 -17 -26 -18 -33 -6 -43 10 -9 19 -4
38 22 29 39 51 103 43 123 -3 8 -17 15 -31 15 -23 0 -25 -4 -25 -42z"/>
<path d="M3996 3377 c-11 -8 -17 -23 -14 -38 2 -19 10 -25 35 -27 28 -3 33 1
39 22 12 51 -19 73 -60 43z"/>
<path d="M1070 3295 l0 -65 65 0 66 0 -3 63 -3 62 -62 3 -63 3 0 -66z"/>
<path d="M1633 3328 c-22 -28 -23 -55 -3 -81 11 -14 20 -37 20 -52 l0 -26 30
28 c60 56 56 135 -6 141 -17 2 -35 -3 -41 -10z"/>
<path d="M3761 3303 c-92 -346 -90 -324 -23 -338 31 -6 33 -5 53 42 12 26 48
103 80 170 32 67 59 130 61 140 3 16 -7 18 -79 21 l-82 3 -10 -38z"/>
<path d="M1486 3309 c-22 -32 3 -80 31 -58 14 13 33 4 33 -16 0 -7 -12 -28
-26 -45 -15 -17 -24 -33 -22 -35 3 -3 19 13 36 34 37 46 43 98 14 124 -25 23
-48 21 -66 -4z"/>
<path d="M2992 3238 l3 -83 81 -3 c103 -4 108 2 98 97 l-7 71 -89 0 -89 0 3
-82z"/>
<path d="M562 3268 c-26 -28 -42 -70 -42 -109 0 -27 3 -30 27 -27 48 5 93 114
61 146 -16 16 -21 15 -46 -10z"/>
<path d="M3973 3284 c-18 -8 -16 -61 2 -68 13 -5 13 -9 3 -26 -7 -11 -21 -23
-30 -26 -10 -3 -18 -12 -18 -21 0 -12 6 -14 28 -8 62 15 90 58 80 126 -3 24
-36 35 -65 23z"/>
<path d="M4116 3255 c-3 -9 0 -18 9 -21 21 -8 47 3 43 19 -7 18 -45 20 -52 2z"/>
<path d="M2776 3239 c-21 -16 -26 -29 -26 -64 0 -37 4 -47 31 -66 l30 -21 28
26 c27 26 29 26 46 10 32 -33 -5 -124 -73 -173 -15 -10 -21 -21 -15 -24 18
-12 110 80 127 126 30 80 25 139 -13 178 -37 36 -94 40 -135 8z"/>
<path d="M4120 3190 c0 -11 5 -20 10 -20 6 0 10 -7 10 -16 0 -14 3 -14 15 -4
8 7 15 23 15 36 0 19 -5 24 -25 24 -18 0 -25 -5 -25 -20z"/>
<path d="M819 3161 c-23 -24 -29 -38 -29 -73 0 -54 19 -83 65 -98 75 -25 145
25 145 102 0 59 -42 98 -105 98 -38 0 -52 -5 -76 -29z"/>
<path d="M3534 3144 c-4 -26 -2 -50 3 -55 6 -6 34 -9 64 -7 l54 3 3 53 3 52
-60 0 -60 0 -7 -46z"/>
<path d="M2590 3100 l0 -70 60 0 60 0 0 70 0 70 -60 0 -60 0 0 -70z"/>
<path d="M1070 3090 l0 -60 30 0 c26 0 30 -4 30 -27 0 -25 -13 -51 -52 -105
-10 -15 -10 -21 5 -35 16 -16 18 -16 44 3 45 33 64 83 70 189 l6 95 -67 0 -66
0 0 -60z"/>
<path d="M1655 3114 c-25 -25 -16 -76 17 -92 57 -27 108 31 73 84 -18 28 -65
32 -90 8z"/>
<path d="M3324 3120 c-33 -13 -54 -50 -54 -93 0 -79 90 -123 169 -82 62 31 66
130 8 165 -33 21 -87 25 -123 10z"/>
<path d="M1440 3055 l0 -65 60 0 60 0 0 65 0 65 -60 0 -60 0 0 -65z"/>
<path d="M2989 3094 c-13 -32 -27 -95 -36 -166 l-6 -48 59 0 c97 0 97 0 129
103 16 51 33 98 38 105 15 20 4 24 -87 29 l-85 6 -12 -29z"/>
<path d="M3920 3040 l0 -80 80 0 80 0 0 80 0 80 -80 0 -80 0 0 -80z"/>
<path d="M1904 3096 c-10 -26 1 -51 23 -54 30 -4 49 31 27 52 -19 20 -43 21
-50 2z"/>
<path d="M3203 3093 c-18 -7 -16 -38 3 -53 12 -11 18 -10 32 4 25 25 -2 63
-35 49z"/>
<path d="M450 2965 l0 -115 115 0 115 0 0 115 0 115 -115 0 -115 0 0 -115z"/>
<path d="M1800 3045 c0 -33 2 -35 35 -35 33 0 35 2 35 35 0 33 -2 35 -35 35
-33 0 -35 -2 -35 -35z"/>
<path d="M1242 3030 c-29 -27 -30 -90 -2 -115 31 -28 79 -24 107 9 28 34 29
65 2 100 -26 33 -75 35 -107 6z"/>
<path d="M3525 3023 c-3 -16 -11 -45 -17 -65 -17 -56 -7 -70 49 -66 l46 3 24
69 c12 39 23 74 23 78 0 4 -27 8 -60 8 -57 0 -60 -1 -65 -27z"/>
<path d="M4150 3027 c-20 -10 -26 -21 -28 -55 -4 -51 8 -69 53 -78 41 -7 69 7
84 44 16 37 0 79 -34 92 -34 13 -45 12 -75 -3z"/>
<path d="M1903 2957 c1 -24 -6 -61 -17 -85 -11 -23 -16 -45 -13 -48 13 -13 59
29 78 69 24 54 24 84 0 97 -39 20 -50 13 -48 -33z"/>
<path d="M1658 2916 c-3 -65 -8 -81 -36 -122 -33 -46 -33 -47 -15 -65 18 -18
19 -18 55 11 53 44 88 120 88 192 l0 58 -44 0 -44 0 -4 -74z"/>
<path d="M3198 2940 c-3 -33 -13 -59 -27 -74 -19 -20 -20 -25 -7 -35 30 -25
86 65 86 137 0 17 -6 22 -24 22 -21 0 -24 -5 -28 -50z"/>
<path d="M2590 2880 l0 -70 30 0 c27 0 30 -3 30 -30 0 -36 -19 -77 -48 -103
-21 -19 -20 -48 3 -67 20 -17 80 51 94 105 6 24 11 87 11 139 l0 96 -60 0 -60
0 0 -70z"/>
<path d="M1810 2928 c0 -7 -16 -47 -34 -88 -34 -75 -36 -90 -12 -90 13 0 106
149 106 169 0 20 -60 29 -60 9z"/>
<path d="M3676 2922 c-5 -8 -8 -76 -7 -135 l1 -38 82 3 83 3 7 55 c4 30 9 70
12 88 l5 32 -89 0 c-49 0 -91 -3 -94 -8z"/>
<path d="M814 2902 c-43 -36 -55 -87 -33 -136 12 -25 63 -56 93 -56 9 0 16 -5
16 -10 0 -20 -45 -79 -73 -95 -42 -25 -55 -60 -32 -85 10 -11 26 -20 35 -20
54 0 138 81 164 158 32 93 15 211 -35 246 -31 22 -108 21 -135 -2z"/>
<path d="M1440 2855 l0 -65 30 0 c23 0 30 -5 30 -19 0 -34 -20 -75 -46 -97
-24 -20 -25 -21 -7 -43 l18 -22 28 21 c50 40 67 88 67 195 l0 95 -60 0 -60 0
0 -65z"/>
<path d="M297 2899 c-41 -23 -45 -79 -7 -99 24 -13 66 2 72 27 12 44 -31 91
-65 72z"/>
<path d="M3920 2820 l0 -80 35 0 c35 0 35 0 35 -44 0 -61 -14 -94 -45 -102
-19 -5 -25 -12 -25 -35 0 -24 4 -29 25 -29 13 0 42 7 64 16 61 24 71 56 71
218 l0 136 -80 0 -80 0 0 -80z"/>
<path d="M2315 2881 c-28 -6 -30 -9 -30 -56 l0 -50 42 1 c54 1 73 17 73 64 0
49 -15 56 -85 41z"/>
<path d="M1960 2845 c0 -33 2 -35 35 -35 33 0 35 2 35 35 0 33 -2 35 -35 35
-33 0 -35 -2 -35 -35z"/>
<path d="M2070 2826 c0 -29 -3 -68 -6 -85 -6 -29 -4 -31 20 -31 34 0 53 41 55
118 l1 52 -35 0 -35 0 0 -54z"/>
<path d="M2202 2868 c-18 -18 -14 -56 7 -68 36 -19 69 38 39 68 -7 7 -17 12
-23 12 -6 0 -16 -5 -23 -12z"/>
<path d="M2465 2864 c-9 -9 -15 -26 -13 -38 2 -16 11 -22 40 -24 32 -3 40 1
49 22 9 20 9 29 -1 41 -16 20 -54 19 -75 -1z"/>
<path d="M2778 2857 c-24 -19 -48 -63 -48 -87 0 -19 33 -40 64 -40 38 0 56 18
80 80 17 42 17 45 0 57 -27 20 -66 16 -96 -10z"/>
<path d="M1260 2857 c-55 -28 -47 -122 11 -134 16 -3 29 -9 29 -13 0 -3 -18
-32 -40 -64 -22 -31 -40 -63 -40 -71 0 -29 23 -26 59 9 76 74 115 206 75 253
-24 28 -62 37 -94 20z"/>
<path d="M2944 2862 c-21 -14 -45 -73 -42 -105 2 -25 8 -33 26 -35 34 -5 49
13 61 70 14 64 -6 96 -45 70z"/>
<path d="M3297 2844 c-80 -43 -48 -184 42 -184 25 0 31 -4 31 -20 0 -31 -28
-68 -71 -92 -43 -24 -55 -48 -40 -76 40 -75 181 21 218 147 17 61 14 154 -8
188 -31 50 -115 68 -172 37z"/>
<path d="M4138 2849 c-13 -7 -18 -23 -18 -60 0 -43 3 -51 25 -61 14 -6 25 -17
25 -25 0 -8 -11 -25 -25 -39 -25 -25 -33 -58 -16 -68 19 -12 71 17 90 50 28
47 54 139 46 164 -3 11 -13 27 -21 35 -17 17 -80 20 -106 4z"/>
<path d="M3533 2834 c-7 -3 -13 -21 -13 -40 0 -32 2 -34 34 -34 39 0 59 19 54
52 -2 18 -10 23 -33 25 -16 1 -36 0 -42 -3z"/>
<path d="M450 2690 l0 -120 55 0 c30 0 55 -2 55 -5 0 -3 -19 -42 -42 -88 -76
-146 -74 -132 -22 -162 25 -15 47 -25 49 -23 1 1 32 64 69 138 l66 135 0 123
0 122 -115 0 -115 0 0 -120z"/>
<path d="M1056 2787 c-33 -33 -35 -88 -6 -117 29 -29 84 -27 117 6 21 21 24
32 20 62 -8 45 -24 61 -69 69 -30 4 -41 1 -62 -20z"/>
<path d="M1806 2768 c-32 -45 -13 -93 40 -104 25 -5 37 -1 53 15 42 42 15 111
-44 111 -24 0 -39 -7 -49 -22z"/>
<path d="M3065 2759 c-30 -26 -35 -37 -35 -74 0 -90 100 -137 168 -80 36 30
47 66 32 111 -25 76 -103 97 -165 43z"/>
<path d="M2208 2763 c-25 -29 -38 -60 -38 -92 0 -44 19 -49 52 -12 24 27 29
40 26 73 -3 47 -17 57 -40 31z"/>
<path d="M1960 2735 c0 -28 4 -35 20 -35 26 0 26 -30 -1 -64 -19 -24 -19 -27
-3 -33 31 -12 54 31 54 103 l0 64 -35 0 c-33 0 -35 -2 -35 -35z"/>
<path d="M284 2734 c-34 -33 -28 -60 30 -139 15 -20 -2 -58 -55 -119 -43 -51
-48 -61 -34 -69 63 -35 170 114 182 254 5 48 2 60 -16 78 -29 29 -76 27 -107
-5z"/>
<path d="M2465 2736 c-17 -25 -11 -56 11 -56 19 0 18 -24 -2 -41 -12 -10 -20
-10 -34 -1 -20 12 -36 0 -25 -18 8 -13 61 -13 86 0 39 22 63 102 37 128 -20
20 -56 14 -73 -12z"/>
<path d="M2310 2720 c-11 -11 -20 -26 -20 -32 0 -29 13 -58 26 -58 27 0 24
-21 -5 -51 -39 -39 -44 -89 -8 -89 31 0 74 43 86 87 15 51 14 136 -1 151 -18
18 -56 14 -78 -8z"/>
<path d="M3675 2730 c-10 -15 -19 -160 -11 -160 4 0 16 5 27 10 27 15 25 -5
-6 -55 -13 -22 -25 -43 -25 -46 0 -3 18 -14 40 -24 48 -22 55 -17 104 64 27
44 36 73 43 132 l9 77 -51 6 c-75 9 -123 7 -130 -4z"/>
<path d="M3534 2704 c-5 -20 -2 -31 11 -41 18 -12 18 -14 -3 -43 -37 -50 -27
-80 19 -53 22 13 31 29 40 68 16 72 11 89 -28 93 -28 3 -33 -1 -39 -24z"/>
<path d="M1670 2665 l0 -45 45 0 45 0 0 45 0 45 -45 0 -45 0 0 -45z"/>
<path d="M2780 2685 c-19 -23 -8 -50 24 -53 31 -4 46 10 46 46 0 18 -6 22 -29
22 -16 0 -34 -7 -41 -15z"/>
<path d="M2075 2681 c-27 -5 -30 -10 -33 -49 l-3 -43 48 3 c42 3 49 6 57 31 7
19 7 34 0 45 -13 20 -27 22 -69 13z"/>
<path d="M1603 2673 c-34 -7 -32 -53 2 -53 21 0 25 5 25 30 0 17 -1 29 -2 29
-2 -1 -13 -4 -25 -6z"/>
<path d="M2938 2663 c-9 -10 -22 -35 -29 -56 -12 -35 -12 -40 4 -52 17 -12 17
-16 3 -50 -20 -46 -1 -43 32 5 27 40 56 135 48 156 -7 19 -40 18 -58 -3z"/>
<path d="M1807 2612 c-19 -21 -21 -45 -7 -73 13 -23 43 -25 61 -3 12 14 14 14
25 -1 17 -23 6 -55 -34 -97 -20 -21 -32 -38 -27 -38 13 1 46 29 73 64 30 38
31 117 2 146 -25 25 -72 26 -93 2z"/>
<path d="M2684 2620 c-49 -20 -90 -120 -49 -120 21 0 19 -17 -6 -51 -24 -34
-11 -38 36 -9 34 21 95 122 95 158 0 12 -9 22 -22 26 -28 7 -28 7 -54 -4z"/>
<path d="M1024 2596 c-22 -18 -28 -32 -27 -61 1 -20 6 -42 11 -47 7 -7 5 -21
-4 -44 -14 -32 -13 -34 6 -34 32 0 95 36 124 70 33 40 33 79 1 114 -31 33 -74
34 -111 2z"/>
<path d="M1586 2583 c-4 -9 0 -23 8 -32 14 -13 14 -17 -5 -37 -32 -34 -8 -61
25 -28 10 10 16 33 16 65 0 41 -3 49 -19 49 -10 0 -22 -8 -25 -17z"/>
<path d="M2169 2576 c-10 -20 -9 -30 5 -51 19 -29 24 -30 49 -11 13 10 17 24
15 48 -2 28 -7 34 -30 36 -22 3 -30 -2 -39 -22z"/>
<path d="M1670 2504 l0 -85 45 32 c44 31 45 34 45 86 l0 53 -45 0 -45 0 0 -86z"/>
<path d="M1968 2583 c-35 -8 -34 -76 1 -86 29 -7 51 11 51 43 0 31 -22 49 -52
43z"/>
<path d="M2405 2574 c-20 -20 -16 -53 8 -68 36 -23 75 35 47 70 -16 18 -35 18
-55 -2z"/>
<path d="M2788 2579 c-23 -13 -23 -48 -1 -64 27 -20 9 -49 -27 -41 -37 7 -40
-11 -4 -20 53 -13 110 67 84 116 -12 22 -26 25 -52 9z"/>
<path d="M4260 2555 c0 -34 1 -35 40 -35 39 0 40 1 40 35 0 34 -1 35 -40 35
-39 0 -40 -1 -40 -35z"/>
<path d="M2526 2554 c-3 -9 -6 -29 -6 -45 0 -25 4 -29 29 -29 30 0 41 18 41
68 0 18 -6 22 -29 22 -17 0 -31 -6 -35 -16z"/>
<path d="M2052 2548 c-22 -22 -14 -67 13 -80 14 -6 25 -17 25 -24 0 -7 -11
-21 -25 -32 -30 -24 -35 -72 -7 -72 45 0 72 42 87 137 10 65 1 83 -44 83 -20
0 -42 -5 -49 -12z"/>
<path d="M3066 2549 c-64 -18 -92 -82 -62 -145 14 -31 14 -38 1 -71 -21 -51
-19 -56 18 -48 49 11 98 39 137 80 30 31 35 43 35 85 0 36 -5 55 -20 70 -27
26 -73 39 -109 29z"/>
<path d="M1330 2490 l0 -60 105 0 105 0 0 60 0 60 -105 0 -105 0 0 -60z"/>
<path d="M3459 2497 c-69 -53 -27 -142 56 -121 47 12 59 64 24 108 -22 28 -54
33 -80 13z"/>
<path d="M2184 2483 c-11 -9 -35 -123 -27 -135 12 -22 44 -5 63 33 26 51 24
103 -5 107 -11 1 -25 -1 -31 -5z"/>
<path d="M1946 2464 c-20 -19 -20 -38 -1 -58 8 -8 15 -24 15 -35 0 -28 14 -26
33 3 26 39 30 71 12 90 -21 20 -39 20 -59 0z"/>
<path d="M2257 2467 c-3 -8 -2 -20 3 -27 11 -18 42 -4 38 17 -4 22 -34 29 -41
10z"/>
<path d="M2400 2465 c-10 -12 -11 -23 -4 -43 8 -20 7 -33 -4 -49 -23 -37 11
-30 48 9 40 42 39 91 -1 96 -15 2 -31 -4 -39 -13z"/>
<path d="M4062 2467 c-31 -18 -72 -81 -79 -122 -5 -30 -2 -35 25 -49 47 -24
95 -21 125 10 25 25 57 101 57 135 0 36 -80 52 -128 26z"/>
<path d="M4267 2473 c-10 -9 -9 -123 1 -123 4 0 22 15 40 33 22 23 32 43 32
65 0 30 -2 32 -33 32 -19 0 -37 -3 -40 -7z"/>
<path d="M2330 2460 c0 -5 9 -10 20 -10 11 0 20 5 20 10 0 6 -9 10 -20 10 -11
0 -20 -4 -20 -10z"/>
<path d="M3870 2462 c-77 -6 -100 -28 -100 -95 0 -50 16 -67 64 -67 61 0 105
18 112 44 3 13 4 42 2 66 -3 48 -18 58 -78 52z"/>
<path d="M1590 2446 c-6 -8 -10 -25 -8 -38 2 -19 9 -23 38 -23 29 0 36 4 38
23 4 28 -14 52 -38 52 -10 0 -23 -7 -30 -14z"/>
<path d="M2497 2431 c-3 -16 -9 -40 -13 -55 -6 -24 -4 -26 25 -26 33 0 45 17
58 83 5 25 3 27 -29 27 -31 0 -36 -4 -41 -29z"/>
<path d="M653 2435 c-29 -21 -32 -84 -5 -108 22 -20 71 -22 95 -4 23 16 32 77
15 100 -19 25 -78 32 -105 12z"/>
<path d="M830 2380 l0 -60 65 0 65 0 0 60 0 60 -65 0 -65 0 0 -60z"/>
<path d="M1145 2415 c-42 -41 -33 -105 17 -131 64 -33 128 7 128 80 0 69 -94
103 -145 51z"/>
<path d="M2870 2433 c-14 -2 -39 -6 -57 -9 -49 -7 -63 -28 -63 -89 0 -57 16
-85 49 -85 46 0 127 22 139 37 6 9 12 40 12 69 0 43 -4 56 -22 68 -12 9 -25
15 -28 15 -3 -1 -16 -3 -30 -6z"/>
<path d="M2333 2408 c4 -14 0 -29 -10 -40 -15 -17 -15 -18 3 -18 13 0 24 11
31 31 14 35 10 49 -14 49 -11 0 -14 -6 -10 -22z"/>
<path d="M2264 2405 c-3 -8 1 -24 9 -36 l15 -21 12 22 c6 12 9 28 6 36 -7 18
-35 18 -42 -1z"/>
<path d="M3241 2393 c-35 -28 -41 -108 -11 -145 27 -35 71 -37 100 -6 23 25
28 113 8 141 -21 27 -70 32 -97 10z"/>
<path d="M2637 2388 c-9 -7 -19 -25 -22 -40 -10 -39 34 -83 73 -73 50 12 67
59 36 103 -17 25 -60 30 -87 10z"/>
<path d="M1719 2353 c-8 -77 -4 -83 56 -83 59 0 65 8 65 83 l0 37 -59 0 -59 0
-3 -37z"/>
<path d="M3610 2315 l0 -75 65 0 65 0 0 75 0 75 -65 0 -65 0 0 -75z"/>
<path d="M1026 2361 c-26 -29 -17 -56 18 -56 36 0 56 27 40 53 -16 24 -37 26
-58 3z"/>
<path d="M1330 2285 l0 -65 55 0 c30 0 55 -2 55 -5 0 -3 -9 -24 -20 -45 -13
-26 -34 -47 -61 -61 l-41 -20 22 -24 c20 -22 23 -22 68 -9 53 16 98 55 118
101 8 19 14 67 14 113 l0 80 -105 0 -105 0 0 -65z"/>
<path d="M1600 2330 c-11 -11 -20 -27 -20 -35 0 -22 29 -75 40 -75 23 0 7 -43
-35 -95 -46 -56 -50 -75 -15 -75 40 0 118 131 128 215 3 34 0 47 -17 64 -26
26 -55 27 -81 1z"/>
<path d="M268 2320 c-37 -29 -40 -100 -6 -124 33 -23 103 -21 128 4 25 25 26
80 2 110 -26 32 -90 38 -124 10z"/>
<path d="M1872 2288 c3 -43 3 -43 46 -46 l42 -3 0 45 0 46 -46 0 -45 0 3 -42z"/>
<path d="M4270 2307 c-58 -29 -43 -117 20 -117 62 0 96 81 48 114 -27 19 -36
19 -68 3z"/>
<path d="M3425 2288 c-33 -17 -45 -40 -45 -80 0 -31 8 -47 40 -82 22 -24 40
-48 40 -55 0 -22 -47 -86 -106 -145 l-58 -58 29 -13 c20 -8 39 -9 56 -3 82 28
188 225 189 351 0 73 -81 121 -145 85z"/>
<path d="M1016 2245 c-21 -22 -20 -41 4 -58 17 -12 18 -16 5 -33 -12 -16 -17
-17 -34 -6 -17 10 -21 10 -21 -2 0 -22 28 -27 65 -12 37 16 49 42 43 92 -4 34
-36 44 -62 19z"/>
<path d="M1720 2238 c0 -13 -3 -40 -6 -60 -5 -31 -4 -38 9 -38 14 0 15 -4 5
-26 -11 -22 -10 -28 7 -40 27 -20 27 -19 64 33 23 33 34 61 38 100 l6 53 -62
0 c-57 0 -61 -2 -61 -22z"/>
<path d="M2649 2253 c-10 -2 -22 -33 -36 -89 l-21 -85 24 -9 c41 -16 72 4 99
62 47 101 23 145 -66 121z"/>
<path d="M647 2232 c-25 -27 -22 -78 5 -96 20 -14 24 -14 44 4 19 18 22 19 34
5 18 -22 4 -65 -38 -107 -19 -21 -33 -40 -30 -43 8 -8 89 76 99 103 16 41 10
98 -12 126 -25 32 -77 36 -102 8z"/>
<path d="M1158 2243 c-10 -2 -18 -14 -19 -26 0 -12 -10 -62 -23 -112 -26 -101
-25 -105 40 -105 48 0 70 20 108 99 28 58 34 119 14 139 -12 12 -84 15 -120 5z"/>
<path d="M2994 2236 c-3 -7 -4 -42 -2 -77 l3 -64 72 -3 72 -3 5 33 c3 18 7 54
9 81 l5 47 -80 0 c-57 0 -80 -4 -84 -14z"/>
<path d="M3858 2243 c-75 -8 -108 -74 -73 -143 12 -23 22 -30 45 -30 23 0 28
-4 24 -17 -14 -42 -30 -66 -56 -79 -22 -12 -28 -21 -28 -49 0 -61 37 -77 97
-39 53 33 83 124 83 251 0 82 -13 116 -43 111 -7 -1 -28 -3 -49 -5z"/>
<path d="M450 2165 l0 -75 70 0 70 0 0 75 0 75 -70 0 -70 0 0 -75z"/>
<path d="M830 2180 c0 -60 0 -60 29 -60 17 0 33 -5 36 -10 12 -19 -6 -69 -36
-102 -26 -27 -29 -35 -20 -55 10 -22 13 -23 39 -9 50 26 75 87 80 198 l5 98
-67 0 -66 0 0 -60z"/>
<path d="M4085 2216 c-37 -16 -83 -68 -92 -104 -5 -20 0 -30 23 -48 l28 -23
-32 -46 c-27 -39 -29 -45 -13 -45 24 0 92 50 127 94 33 41 63 110 63 147 1 39
-47 50 -104 25z"/>
<path d="M1870 2160 c0 -22 5 -40 10 -40 6 0 10 -18 10 -40 0 -33 3 -40 20
-40 27 0 50 49 50 110 l0 50 -45 0 -45 0 0 -40z"/>
<path d="M2813 2190 c-51 -12 -63 -27 -63 -80 0 -40 4 -52 26 -69 15 -12 37
-21 50 -21 13 0 24 -5 24 -11 0 -27 -33 -76 -65 -97 -30 -19 -35 -28 -35 -62
0 -47 19 -62 64 -49 43 12 93 65 111 118 9 25 19 91 22 146 5 87 3 103 -11
118 -18 18 -66 21 -123 7z"/>
<path d="M3253 2190 c-12 -5 -23 -21 -27 -37 -31 -165 -37 -205 -32 -218 7
-20 70 -20 89 0 30 30 60 108 65 172 4 56 2 68 -13 80 -21 15 -50 16 -82 3z"/>
<path d="M3610 2095 l0 -75 31 0 c32 0 32 0 26 -46 -3 -32 -13 -54 -33 -75
-24 -25 -26 -32 -16 -54 15 -32 22 -31 54 3 49 52 61 89 66 209 l5 113 -67 0
-66 0 0 -75z"/>
<path d="M4267 2159 c-31 -18 -39 -56 -21 -95 15 -32 15 -36 0 -53 -20 -22
-20 -31 -1 -31 49 0 115 76 115 133 0 48 -49 72 -93 46z"/>
<path d="M277 2143 c-8 -13 -57 -223 -57 -243 0 -35 56 -41 69 -7 5 12 32 70
60 128 28 58 51 111 51 117 0 13 -116 17 -123 5z"/>
<path d="M1003 2060 c-17 -7 -23 -18 -23 -40 0 -27 3 -30 34 -30 39 0 59 19
54 52 -3 26 -29 33 -65 18z"/>
<path d="M1780 2055 c-15 -18 -5 -64 15 -72 45 -16 86 28 64 69 -12 22 -61 24
-79 3z"/>
<path d="M2996 2039 c-3 -17 -6 -54 -6 -81 0 -46 1 -48 20 -38 25 14 25 6 0
-35 l-20 -33 36 -22 c39 -25 37 -26 88 49 22 33 36 65 36 85 0 17 3 48 6 69
l7 37 -80 0 -80 0 -7 -31z"/>
<path d="M1630 2039 c-24 -44 14 -94 61 -82 15 4 39 42 39 63 0 18 -33 40 -60
40 -19 0 -33 -7 -40 -21z"/>
<path d="M450 1919 c0 -138 -4 -136 84 -67 l55 43 0 73 1 72 -70 0 -70 0 0
-121z"/>
<path d="M1415 1967 c-13 -102 -13 -102 93 -105 l92 -3 0 81 0 80 -89 0 -90 0
-6 -53z"/>
<path d="M2622 1968 l3 -53 58 -3 57 -3 0 56 0 55 -61 0 -60 0 3 -52z"/>
<path d="M1890 1965 c0 -33 2 -35 35 -35 33 0 35 2 35 35 0 33 -2 35 -35 35
-33 0 -35 -2 -35 -35z"/>
<path d="M675 1964 c-34 -37 -44 -93 -20 -111 32 -23 71 -16 99 17 31 38 45
98 25 111 -29 18 -79 10 -104 -17z"/>
<path d="M1230 1915 l0 -75 75 0 75 0 0 75 0 75 -75 0 -75 0 0 -75z"/>
<path d="M998 1959 c-22 -12 -24 -57 -3 -65 21 -9 19 -21 -10 -46 -44 -38 -25
-75 24 -48 22 11 44 84 39 131 -3 36 -21 46 -50 28z"/>
<path d="M1792 1949 c-18 -7 -23 -15 -20 -36 3 -28 17 -33 58 -22 27 7 22 -36
-9 -69 -33 -36 -27 -44 8 -11 43 41 53 97 21 129 -22 22 -25 23 -58 9z"/>
<path d="M4145 1924 c-33 -35 -32 -67 2 -94 48 -38 123 3 123 66 0 59 -81 76
-125 28z"/>
<path d="M1102 1924 c-42 -29 -18 -104 35 -104 49 0 72 76 31 104 -12 9 -27
16 -33 16 -6 0 -21 -7 -33 -16z"/>
<path d="M3990 1917 c-52 -26 -49 -104 5 -129 22 -10 30 -8 53 9 39 29 42 83
6 112 -31 25 -31 25 -64 8z"/>
<path d="M310 1870 c-24 -24 -25 -48 -4 -78 18 -26 65 -30 88 -6 24 23 20 70
-6 88 -30 21 -54 20 -78 -4z"/>
<path d="M1632 1878 c-15 -15 -16 -60 0 -76 7 -7 23 -12 36 -12 31 0 26 -34
-6 -38 -14 -2 -22 -10 -22 -23 0 -15 7 -19 35 -19 31 0 35 3 46 40 9 28 9 55
3 88 -9 45 -11 47 -44 50 -19 2 -41 -3 -48 -10z"/>
<path d="M1890 1855 c0 -28 4 -35 20 -35 27 0 26 -30 -2 -65 l-21 -27 24 7
c38 11 43 21 47 90 l4 65 -36 0 c-34 0 -36 -1 -36 -35z"/>
<path d="M826 1864 c-9 -8 -16 -22 -16 -29 0 -18 27 -45 45 -45 18 0 45 27 45
45 0 18 -27 45 -45 45 -7 0 -21 -7 -29 -16z"/>
<path d="M2615 1868 c-10 -28 -25 -104 -25 -128 0 -25 2 -25 52 -20 l53 5 22
60 c34 93 33 95 -37 95 -40 0 -62 -4 -65 -12z"/>
<path d="M3156 1854 c-9 -8 -16 -31 -16 -49 0 -18 7 -41 16 -49 21 -22 77 -20
97 2 22 25 21 75 -1 95 -23 21 -76 22 -96 1z"/>
<path d="M3476 1848 c-32 -45 -14 -133 28 -144 34 -8 63 10 76 51 19 58 -11
115 -61 115 -17 0 -34 -8 -43 -22z"/>
<path d="M3807 1823 c-49 -56 3 -137 73 -111 13 5 28 14 32 21 14 22 8 74 -10
90 -24 22 -75 22 -95 0z"/>
<path d="M1421 1803 c-12 -23 -41 -157 -41 -190 0 -22 4 -23 78 -23 l79 0 36
107 c21 58 35 109 32 111 -3 3 -43 8 -89 10 -76 4 -85 2 -95 -15z"/>
<path d="M2906 1804 c-9 -8 -16 -19 -16 -24 0 -13 30 -40 45 -40 18 0 45 28
45 45 0 14 -29 35 -49 35 -5 0 -17 -7 -25 -16z"/>
<path d="M3332 1804 c-15 -10 -22 -24 -20 -37 2 -18 10 -22 43 -22 39 0 40 1
40 35 0 41 -25 51 -63 24z"/>
<path d="M700 1787 c-47 -23 -74 -117 -34 -117 19 0 18 -7 -7 -46 l-20 -33 29
10 c50 17 121 117 122 170 0 29 -47 38 -90 16z"/>
<path d="M827 1766 c-19 -19 -11 -55 15 -65 18 -6 18 -9 -7 -44 -29 -44 -30
-47 -11 -47 35 0 89 116 69 146 -14 20 -50 26 -66 10z"/>
<path d="M1092 1768 c-16 -16 -16 -70 0 -86 7 -7 20 -12 31 -12 28 0 19 -44
-10 -48 -17 -3 -23 -10 -23 -28 0 -26 20 -31 63 -15 44 17 62 114 32 171 -12
24 -22 30 -48 30 -18 0 -38 -5 -45 -12z"/>
<path d="M3038 1769 c-21 -12 -24 -69 -6 -87 40 -40 95 25 63 75 -17 25 -30
28 -57 12z"/>
<path d="M3660 1735 l0 -45 45 0 45 0 0 45 0 45 -45 0 -45 0 0 -45z"/>
<path d="M4182 1757 c-32 -34 -30 -94 3 -109 30 -14 32 -31 5 -58 -24 -24 -43
-25 -60 -5 -17 21 -40 19 -40 -4 0 -28 28 -46 72 -45 69 2 138 85 138 167 0
30 -6 49 -18 60 -27 24 -74 21 -100 -6z"/>
<path d="M470 1750 c-21 -21 -26 -65 -11 -88 13 -21 77 -19 101 3 22 20 27 74
8 93 -19 19 -76 14 -98 -8z"/>
<path d="M3966 1738 c-22 -31 -20 -74 4 -98 12 -12 20 -33 20 -55 0 -42 5 -43
38 -8 73 79 66 183 -13 183 -24 0 -39 -7 -49 -22z"/>
<path d="M931 1724 c-24 -31 -26 -43 -10 -78 15 -31 32 -38 76 -30 55 10 72
73 30 112 -32 30 -71 28 -96 -4z"/>
<path d="M1797 1732 c-21 -23 -22 -56 -1 -76 28 -28 54 -17 68 31 5 15 1 28
-13 42 -26 26 -33 26 -54 3z"/>
<path d="M2770 1705 l0 -45 50 0 50 0 0 45 0 45 -50 0 -50 0 0 -45z"/>
<path d="M1245 1642 c-21 -54 -53 -128 -71 -167 -25 -51 -30 -71 -21 -77 15
-10 57 -22 61 -17 11 16 167 311 164 313 -1 1 -24 11 -49 23 l-46 21 -38 -96z"/>
<path d="M303 1704 c-15 -24 -15 -29 -2 -53 8 -14 25 -27 37 -29 16 -2 22 -10
22 -28 0 -20 -5 -24 -30 -24 -27 0 -30 -3 -30 -30 0 -26 3 -30 29 -30 52 0 74
29 79 101 5 89 -8 119 -53 119 -26 0 -39 -6 -52 -26z"/>
<path d="M2041 1716 c-17 -20 -7 -46 16 -46 28 0 45 16 41 36 -4 24 -41 30
-57 10z"/>
<path d="M2130 1705 c0 -21 5 -25 30 -25 25 0 30 4 30 25 0 21 -5 25 -30 25
-25 0 -30 -4 -30 -25z"/>
<path d="M2200 1710 c0 -13 7 -20 20 -20 13 0 20 7 20 20 0 13 -7 20 -20 20
-13 0 -20 -7 -20 -20z"/>
<path d="M2280 1715 c0 -8 5 -15 10 -15 6 0 10 7 10 15 0 8 -4 15 -10 15 -5 0
-10 -7 -10 -15z"/>
<path d="M1890 1650 l0 -60 65 0 65 0 0 60 0 60 -65 0 -65 0 0 -60z"/>
<path d="M3162 1642 c0 -75 -15 -121 -55 -168 -32 -38 -33 -46 -7 -69 19 -17
21 -17 57 15 79 68 124 174 108 256 -6 33 -7 34 -54 34 l-48 0 -1 -68z"/>
<path d="M3326 1688 c-21 -30 -20 -44 5 -61 17 -13 19 -19 10 -36 -7 -12 -18
-21 -26 -21 -9 0 -15 -10 -15 -25 0 -29 29 -34 54 -10 18 19 40 119 32 151 -8
31 -40 32 -60 2z"/>
<path d="M2596 1669 c-30 -24 -35 -72 -10 -107 12 -17 25 -22 59 -22 39 0 46
4 60 30 21 41 19 67 -10 95 -30 30 -64 32 -99 4z"/>
<path d="M2274 1648 c4 -22 1 -37 -11 -51 -14 -16 -15 -19 -3 -15 19 5 50 66
43 84 -3 8 -12 14 -20 14 -12 0 -14 -7 -9 -32z"/>
<path d="M2200 1656 c0 -8 6 -16 13 -19 10 -4 10 -7 0 -18 -16 -16 -17 -29 -3
-29 13 0 51 61 44 72 -9 14 -54 9 -54 -6z"/>
<path d="M2888 1606 c-33 -67 -32 -96 2 -96 15 0 27 16 50 66 37 81 37 94 5
94 -21 0 -30 -11 -57 -64z"/>
<path d="M3815 1658 c-27 -15 -35 -28 -35 -58 0 -39 27 -70 61 -70 22 0 29 -5
29 -20 0 -21 -27 -40 -59 -40 -16 0 -21 -6 -21 -25 0 -22 4 -25 40 -25 49 0
76 24 86 75 9 50 0 134 -17 150 -21 20 -61 27 -84 13z"/>
<path d="M1677 1654 c-10 -11 -9 -42 3 -49 20 -12 51 6 48 28 -3 22 -36 35
-51 21z"/>
<path d="M2124 1643 c3 -7 1 -15 -4 -18 -21 -13 -10 -32 16 -27 20 4 44 34 44
56 0 2 -14 3 -30 2 -19 -1 -28 -5 -26 -13z"/>
<path d="M3477 1642 c-23 -25 -22 -84 3 -113 l20 -24 18 23 c16 21 20 22 31 8
19 -22 7 -75 -29 -127 -35 -51 -39 -70 -10 -44 34 31 80 138 80 186 0 61 -31
109 -68 109 -16 0 -36 -8 -45 -18z"/>
<path d="M3035 1626 c-24 -24 -49 -95 -43 -124 5 -26 43 -26 67 0 43 45 53
148 15 148 -8 0 -26 -11 -39 -24z"/>
<path d="M2043 1624 c-3 -9 -1 -25 6 -36 15 -24 5 -41 -21 -35 -12 4 -18 1
-15 -6 13 -42 90 15 85 62 -4 31 -44 42 -55 15z"/>
<path d="M2766 1625 c-3 -8 -3 -21 0 -29 3 -8 1 -17 -5 -21 -6 -3 -11 -19 -11
-36 0 -28 2 -29 43 -29 l43 0 17 53 c9 30 17 59 17 65 0 19 -97 16 -104 -3z"/>
<path d="M3700 1597 c-5 -12 -25 -60 -45 -106 -27 -65 -32 -87 -23 -93 21 -13
36 -9 43 11 3 10 26 54 50 97 25 43 45 81 45 84 0 3 -14 11 -31 17 -27 11 -31
10 -39 -10z"/>
<path d="M478 1573 c-21 -5 -42 -56 -33 -83 4 -12 17 -25 30 -30 18 -7 22 -14
18 -30 -8 -30 -49 -48 -74 -32 -25 16 -29 15 -29 -7 0 -36 66 -42 117 -11 52
31 80 129 53 181 -10 18 -41 23 -82 12z"/>
<path d="M2144 1572 c-15 -10 -24 -40 -18 -57 9 -23 61 -19 74 5 20 38 -21 76
-56 52z"/>
<path d="M1656 1551 c-19 -21 -15 -51 9 -71 22 -18 19 -32 -20 -77 -35 -41
-33 -64 2 -44 33 17 60 56 78 109 16 49 16 55 1 77 -20 30 -47 32 -70 6z"/>
<path d="M1789 1534 c-12 -20 -24 -56 -27 -80 -4 -41 -3 -44 18 -44 27 0 55
30 71 77 25 77 -21 113 -62 47z"/>
<path d="M2240 1550 c0 -11 7 -20 15 -20 8 0 15 9 15 20 0 11 -7 20 -15 20 -8
0 -15 -9 -15 -20z"/>
<path d="M623 1553 c-31 -4 -31 -6 -35 -61 -1 -31 -2 -74 0 -94 l3 -38 89 0
c49 0 91 3 93 8 3 4 8 49 12 100 l7 92 -68 -2 c-38 0 -83 -3 -101 -5z"/>
<path d="M1462 1544 c-17 -12 -22 -25 -22 -62 0 -68 8 -76 70 -69 65 8 90 29
90 74 0 58 -14 73 -68 73 -27 0 -57 -7 -70 -16z"/>
<path d="M903 1521 c-58 -36 -56 -91 7 -156 39 -40 39 -40 25 -80 -8 -24 -33
-58 -63 -85 -27 -25 -56 -57 -66 -71 -16 -25 -15 -26 6 -36 33 -14 82 2 112
38 73 86 136 229 136 306 0 86 -81 130 -157 84z"/>
<path d="M1890 1466 l0 -66 30 0 c26 0 30 -4 30 -26 0 -29 -14 -60 -42 -91
-16 -17 -18 -25 -8 -43 l11 -21 32 19 c44 27 67 78 74 161 4 51 9 68 19 64 22
-8 55 17 52 40 -3 19 -10 21 -100 25 l-98 3 0 -65z"/>
<path d="M4030 1516 c-6 -8 -10 -25 -8 -38 2 -19 9 -23 38 -23 29 0 36 4 38
23 4 28 -14 52 -38 52 -10 0 -23 -7 -30 -14z"/>
<path d="M2237 1480 c-22 -36 -6 -41 17 -5 18 27 20 35 8 35 -4 0 -16 -13 -25
-30z"/>
<path d="M2620 1503 c-25 -9 -40 -35 -40 -70 0 -35 29 -73 55 -73 24 0 18 -23
-17 -70 -18 -24 -37 -49 -42 -56 -7 -8 -5 -18 3 -28 12 -14 17 -13 46 9 36 28
95 129 96 166 0 13 3 18 6 12 3 -8 23 -13 49 -13 l44 0 0 45 0 45 -45 0 c-36
0 -45 -4 -46 -17 0 -12 -4 -9 -10 8 -14 37 -59 56 -99 42z"/>
<path d="M1323 1493 c-7 -2 -13 -20 -13 -39 0 -35 1 -35 38 -32 35 3 37 5 40
41 3 35 2 37 -25 36 -15 0 -34 -3 -40 -6z"/>
<path d="M3286 1467 c-48 -48 -26 -120 39 -133 71 -13 115 15 115 75 0 55 -18
73 -78 79 -44 4 -54 1 -76 -21z"/>
<path d="M2134 1465 c-4 -9 -4 -31 -1 -50 3 -19 1 -37 -4 -40 -12 -8 -12 -25
0 -25 5 0 24 12 41 26 26 22 31 33 28 63 -3 31 -7 36 -31 39 -18 2 -29 -2 -33
-13z"/>
<path d="M2902 1470 c-30 -12 -55 -74 -48 -115 13 -66 88 -102 144 -70 68 41
80 109 28 161 -36 36 -75 43 -124 24z"/>
<path d="M2047 1434 c-12 -12 -8 -62 6 -67 8 -3 5 -12 -12 -30 -29 -32 -23
-65 9 -45 23 14 43 75 38 116 -3 26 -26 40 -41 26z"/>
<path d="M2523 1424 c-8 -20 8 -36 26 -25 15 10 8 41 -9 41 -6 0 -13 -7 -17
-16z"/>
<path d="M4060 1413 c-21 -7 -40 -33 -40 -54 0 -10 12 -31 26 -48 33 -40 28
-63 -26 -119 -40 -42 -47 -72 -17 -72 47 0 125 125 134 214 5 48 3 55 -18 70
-24 17 -34 18 -59 9z"/>
<path d="M1317 1373 c-4 -3 -7 -20 -7 -36 0 -20 6 -30 20 -34 26 -7 25 -19 -3
-46 -21 -22 -24 -52 -7 -70 4 -5 20 3 36 16 26 23 29 32 32 101 l4 76 -34 0
c-19 0 -38 -3 -41 -7z"/>
<path d="M2527 1366 c-3 -8 0 -22 8 -32 9 -13 10 -24 2 -41 -12 -26 -27 -30
-27 -7 0 11 -8 14 -32 12 -26 -2 -34 -8 -36 -27 -5 -33 7 -40 53 -33 33 6 43
13 57 42 25 49 24 100 -1 100 -10 0 -21 -6 -24 -14z"/>
<path d="M3770 1320 l0 -60 80 0 80 0 0 60 0 60 -80 0 -80 0 0 -60z"/>
<path d="M1525 1363 c-69 -14 -65 -10 -65 -66 0 -55 12 -77 42 -77 10 0 18 -3
18 -7 0 -17 -40 -72 -59 -83 -26 -13 -30 -77 -6 -86 20 -8 68 12 94 39 25 27
51 132 51 209 0 47 -4 59 -19 68 -20 10 -23 11 -56 3z"/>
<path d="M1717 1350 c-58 -46 -21 -140 55 -140 38 0 78 40 78 78 0 67 -79 104
-133 62z"/>
<path d="M658 1343 l-67 -4 -6 -52 c-4 -29 -5 -70 -3 -92 3 -37 5 -40 31 -37
28 3 28 3 13 -26 -8 -16 -22 -34 -30 -41 -25 -21 -20 -30 30 -54 l46 -22 17
24 c9 14 30 42 48 64 36 42 46 81 47 177 l1 65 -30 1 c-16 0 -60 -1 -97 -3z"/>
<path d="M1148 1339 c-32 -3 -68 -13 -81 -22 -45 -29 -47 -153 -4 -182 31 -20
152 -4 180 24 25 25 34 115 15 150 -17 32 -41 38 -110 30z"/>
<path d="M2730 1305 c0 -25 5 -45 10 -45 6 0 10 -18 10 -40 0 -35 3 -40 23
-40 19 0 26 8 35 39 7 21 12 59 12 85 l0 46 -45 0 -45 0 0 -45z"/>
<path d="M3524 1310 c-30 -12 -48 -71 -40 -134 8 -71 29 -86 117 -86 92 0 109
16 109 103 0 86 -7 104 -42 116 -37 13 -114 13 -144 1z"/>
<path d="M3100 1210 l0 -100 60 0 61 0 -3 98 -3 97 -57 3 -58 3 0 -101z"/>
<path d="M3302 1284 c-52 -27 -57 -82 -10 -117 l28 -21 31 23 c24 18 33 20 45
11 32 -27 13 -76 -54 -137 -32 -28 -41 -42 -30 -43 9 0 39 22 67 49 54 53 77
110 67 166 -13 65 -83 99 -144 69z"/>
<path d="M497 1277 c-8 -20 9 -41 27 -34 23 9 21 47 -3 47 -10 0 -21 -6 -24
-13z"/>
<path d="M2903 1230 c-32 -13 -56 -66 -49 -108 6 -37 31 -72 53 -72 9 0 13
-16 13 -55 0 -30 4 -55 10 -55 21 0 77 61 103 112 37 75 36 111 -7 154 -35 35
-75 43 -123 24z"/>
<path d="M494 1215 c-3 -8 1 -24 9 -36 l15 -21 12 22 c6 12 9 28 6 36 -7 18
-35 18 -42 -1z"/>
<path d="M2392 1219 c2 -6 8 -10 13 -10 5 0 11 4 13 10 2 6 -4 11 -13 11 -9 0
-15 -5 -13 -11z"/>
<path d="M2447 1213 c-11 -10 -8 -53 3 -53 18 0 11 -29 -10 -40 -22 -12 -27
-40 -7 -40 33 1 57 45 57 106 0 26 -4 34 -18 34 -10 0 -22 -3 -25 -7z"/>
<path d="M1893 1189 c-47 -17 -37 -99 12 -99 27 0 65 31 65 53 0 34 -42 59
-77 46z"/>
<path d="M1744 1180 c-25 -10 -54 -52 -54 -79 0 -11 14 -33 30 -49 22 -23 30
-40 30 -67 0 -32 2 -35 18 -26 30 16 73 79 79 116 8 50 -4 83 -37 100 -33 17
-37 17 -66 5z"/>
<path d="M2386 1181 c-4 -6 -4 -22 0 -36 4 -18 1 -32 -11 -45 -10 -11 -13 -20
-7 -20 19 0 53 53 50 79 -3 26 -22 39 -32 22z"/>
<path d="M2310 1165 c0 -8 7 -15 15 -15 8 0 15 7 15 15 0 8 -7 15 -15 15 -8 0
-15 -7 -15 -15z"/>
<path d="M3770 1120 l0 -60 40 0 c37 0 40 -2 40 -27 0 -36 -33 -89 -59 -98
-25 -7 -25 -13 -6 -39 13 -17 18 -17 47 -6 77 31 98 73 98 200 l0 90 -80 0
-80 0 0 -60z"/>
<path d="M2520 1105 l0 -65 60 0 60 0 0 65 0 65 -60 0 -60 0 0 -65z"/>
<path d="M2680 1125 l0 -45 70 0 70 0 0 45 0 45 -70 0 -70 0 0 -45z"/>
<path d="M1311 1116 c-21 -26 -10 -69 22 -80 23 -8 31 -6 49 12 18 18 20 26
12 49 -7 21 -17 29 -40 31 -18 2 -36 -3 -43 -12z"/>
<path d="M1592 1108 c-22 -22 -15 -57 13 -64 33 -8 57 12 53 45 -2 19 -10 27
-28 29 -14 2 -31 -3 -38 -10z"/>
<path d="M2311 1090 c-12 -36 1 -40 17 -5 14 31 15 35 3 35 -5 0 -14 -13 -20
-30z"/>
<path d="M2216 1068 c-13 -95 -13 -93 15 -96 29 -3 32 2 44 91 l7 47 -30 0
c-28 0 -30 -3 -36 -42z"/>
<path d="M906 1048 c-41 -58 15 -136 71 -100 23 15 34 62 21 90 -18 37 -69 43
-92 10z"/>
<path d="M1874 1044 c-17 -24 -17 -29 -2 -54 14 -25 14 -31 1 -50 -21 -29 -11
-35 27 -15 19 10 39 32 50 57 23 53 14 82 -28 86 -24 3 -35 -3 -48 -24z"/>
<path d="M3091 1033 c-9 -37 -23 -157 -25 -218 -1 -29 1 -30 45 -33 42 -3 47
-1 57 25 6 15 19 77 28 136 20 124 19 127 -53 127 -40 0 -43 -2 -52 -37z"/>
<path d="M1080 1042 c-30 -14 -36 -24 -44 -66 -8 -41 -7 -54 10 -85 15 -28 26
-37 54 -41 28 -4 34 -9 32 -25 -6 -35 -37 -79 -69 -100 -39 -24 -58 -65 -48
-102 13 -52 50 -56 118 -14 57 37 85 88 103 190 16 91 18 215 4 242 -14 26
-110 27 -160 1z"/>
<path d="M759 1019 c-23 -44 25 -91 59 -57 17 17 15 65 -4 72 -28 11 -43 6
-55 -15z"/>
<path d="M2060 975 l0 -65 60 0 60 0 0 65 0 65 -60 0 -60 0 0 -65z"/>
<path d="M2403 1034 c-7 -3 -13 -23 -13 -45 0 -46 15 -56 63 -42 29 8 32 12
32 48 0 39 -1 40 -35 42 -19 1 -41 0 -47 -3z"/>
<path d="M1597 1012 c-20 -22 -22 -53 -5 -70 9 -9 7 -16 -7 -32 -17 -19 -17
-20 -1 -20 28 0 76 55 76 87 0 50 -33 68 -63 35z"/>
<path d="M3515 1008 c-23 -20 -29 -35 -32 -79 -6 -69 9 -108 47 -122 43 -16
36 -59 -19 -116 -32 -33 -35 -41 -25 -78 13 -49 109 -7 161 71 43 63 63 134
63 222 0 99 -15 116 -102 122 -57 4 -68 1 -93 -20z"/>
<path d="M1980 1005 c0 -9 5 -15 11 -13 6 2 11 8 11 13 0 5 -5 11 -11 13 -6 2
-11 -4 -11 -13z"/>
<path d="M2680 935 l0 -85 70 35 70 35 0 50 0 50 -70 0 -70 0 0 -85z"/>
<path d="M1410 915 l0 -65 65 0 65 0 0 65 0 65 -65 0 -65 0 0 -65z"/>
<path d="M2520 915 l0 -65 31 0 c28 0 31 -3 25 -22 -3 -13 -6 -28 -6 -35 0 -7
-13 -28 -30 -46 -26 -30 -28 -36 -16 -53 13 -17 16 -17 42 -4 45 25 74 104 74
205 l0 85 -60 0 -60 0 0 -65z"/>
<path d="M1321 954 c-38 -27 -23 -94 22 -94 26 0 18 -32 -11 -45 -31 -14 -28
-35 6 -35 48 0 53 10 50 95 -3 69 -5 79 -24 86 -14 5 -29 2 -43 -7z"/>
<path d="M1965 959 c-4 -6 1 -16 10 -23 17 -12 16 -14 -5 -34 -23 -21 -23 -41
-1 -27 18 10 43 66 37 81 -6 16 -32 19 -41 3z"/>
<path d="M3254 893 c-5 -32 -7 -71 -4 -88 l5 -30 90 0 90 0 6 70 c4 39 9 77
10 85 3 12 -13 15 -92 18 l-96 3 -9 -58z"/>
<path d="M766 924 c-21 -20 -20 -36 3 -79 l19 -36 21 27 c12 15 21 37 21 50 0
22 -23 54 -40 54 -5 0 -16 -7 -24 -16z"/>
<path d="M2232 914 c-15 -10 -22 -25 -22 -47 0 -40 9 -53 43 -66 36 -14 75 1
87 35 27 69 -46 122 -108 78z"/>
<path d="M945 900 c-49 -19 -112 -163 -85 -195 33 -40 96 4 124 88 24 72 5
124 -39 107z"/>
<path d="M1739 886 c-15 -32 -4 -72 21 -79 27 -7 50 17 50 52 0 52 -51 71 -71
27z"/>
<path d="M2420 901 c-21 -6 -26 -14 -28 -50 -3 -36 0 -43 17 -48 12 -3 21 -7
21 -10 0 -12 -25 -50 -42 -61 -22 -16 -25 -72 -3 -72 58 0 95 58 103 163 6 85
-4 96 -68 78z"/>
<path d="M2806 895 c-18 -18 -19 -25 -10 -49 8 -20 48 -21 64 -2 32 40 -17 87
-54 51z"/>
<path d="M2934 902 c-16 -10 -34 -48 -34 -70 0 -26 31 -52 63 -52 29 0 57 32
57 67 0 43 -54 77 -86 55z"/>
<path d="M2060 830 l0 -60 30 0 c40 0 39 -23 -1 -59 -27 -25 -29 -32 -20 -50
14 -25 24 -26 58 -4 37 25 53 72 53 158 l0 75 -60 0 -60 0 0 -60z"/>
<path d="M1608 854 c-10 -22 -10 -28 5 -39 25 -18 56 -7 63 21 8 30 -2 44 -32
44 -17 0 -28 -8 -36 -26z"/>
<path d="M1875 808 c-3 -13 -6 -68 -8 -123 -2 -81 1 -99 12 -97 11 2 10 -3 -3
-23 -10 -15 -16 -28 -14 -30 2 -1 13 -8 26 -14 20 -11 26 -10 38 6 42 54 52
82 58 158 4 44 9 95 12 113 l6 32 -61 0 c-55 0 -61 -2 -66 -22z"/>
<path d="M2680 815 c0 -8 9 -15 20 -15 11 0 20 7 20 15 0 8 -9 15 -20 15 -11
0 -20 -7 -20 -15z"/>
<path d="M1410 735 c0 -63 1 -65 25 -65 22 0 25 -4 25 -35 0 -30 3 -35 23 -35
30 0 57 67 57 143 l0 57 -65 0 -65 0 0 -65z"/>
<path d="M2802 778 c-18 -18 -15 -55 6 -67 16 -9 16 -11 -1 -28 -14 -15 -21
-16 -37 -5 -17 10 -20 10 -20 -2 0 -38 77 -24 100 18 18 35 9 90 -15 94 -11 1
-26 -3 -33 -10z"/>
<path d="M1740 748 c-33 -54 -40 -126 -13 -135 34 -12 93 100 78 147 -10 31
-43 24 -65 -12z"/>
<path d="M2683 764 c-3 -8 -1 -20 6 -27 17 -17 13 -38 -11 -64 -16 -18 -18
-23 -6 -23 8 0 22 8 30 18 18 20 37 81 31 100 -6 17 -42 15 -50 -4z"/>
<path d="M1607 753 c-14 -13 -7 -61 9 -67 27 -10 -4 -39 -34 -31 -17 4 -23 2
-20 -7 3 -7 16 -14 31 -16 41 -5 77 37 77 88 0 37 -2 40 -28 40 -16 0 -32 -3
-35 -7z"/>
<path d="M2234 737 c-46 -40 -25 -117 33 -117 21 0 24 -4 21 -27 -2 -23 -8
-29 -35 -31 -27 -3 -33 -7 -33 -28 0 -21 4 -24 40 -24 65 0 80 23 80 124 0 79
-2 86 -26 105 -34 27 -47 26 -80 -2z"/>
<path d="M3068 734 c-36 -19 -40 -77 -8 -94 21 -11 80 -5 113 12 20 10 24 67
5 86 -16 16 -77 14 -110 -4z"/>
<path d="M3246 670 c-4 -45 -4 -85 -1 -88 3 -3 16 0 30 6 31 14 31 8 0 -47
-14 -23 -25 -48 -25 -55 0 -11 60 -46 79 -46 5 0 30 30 56 66 43 60 48 73 56
146 5 45 7 83 5 86 -3 3 -48 7 -99 10 l-94 5 -7 -83z"/>
<path d="M2928 708 c-39 -42 -58 -86 -58 -138 0 -39 1 -40 34 -40 43 0 77 38
96 105 25 91 -16 133 -72 73z"/>
<path d="M1314 716 c-10 -26 4 -48 28 -44 17 2 23 10 23 28 0 18 -6 26 -23 28
-13 2 -25 -3 -28 -12z"/>
<path d="M1312 633 c-28 -11 -34 -42 -12 -72 27 -40 26 -52 -15 -91 -41 -40
-43 -50 -12 -50 28 0 47 19 74 75 31 63 36 94 18 121 -15 24 -27 28 -53 17z"/>
<path d="M2390 575 l0 -65 60 0 60 0 0 65 0 65 -60 0 -60 0 0 -65z"/>
<path d="M2552 628 c-7 -7 -12 -21 -12 -33 0 -46 57 -62 84 -24 31 45 -33 96
-72 57z"/>
<path d="M1757 599 c-22 -31 -10 -61 22 -57 29 3 41 39 21 64 -17 19 -26 18
-43 -7z"/>
<path d="M2700 555 l0 -65 60 0 60 0 0 65 0 65 -60 0 -60 0 0 -65z"/>
<path d="M2022 574 c-28 -19 -29 -67 -2 -94 28 -28 93 -27 120 2 45 49 12 108
-60 108 -20 0 -46 -7 -58 -16z"/>
<path d="M3070 577 c-45 -23 -36 -107 11 -107 37 0 18 -42 -33 -73 -20 -13
-28 -26 -28 -47 0 -65 94 -38 137 39 29 52 43 162 23 186 -15 18 -75 20 -110
2z"/>
<path d="M1463 563 c-66 -8 -65 -63 1 -63 54 0 76 10 76 35 0 20 -20 38 -38
33 -4 0 -21 -3 -39 -5z"/>
<path d="M1619 546 c-27 -58 26 -112 62 -65 24 31 24 52 1 72 -26 24 -51 21
-63 -7z"/>
<path d="M2558 519 c-22 -12 -23 -52 -3 -69 12 -10 19 -10 27 -2 18 18 28 14
28 -12 0 -13 -12 -35 -26 -50 -15 -14 -22 -26 -17 -26 12 0 47 38 62 67 16 32
14 56 -9 81 -23 24 -36 27 -62 11z"/>
<path d="M1773 510 c-31 -13 -31 -65 -1 -97 22 -23 22 -24 4 -58 -10 -19 -29
-44 -42 -56 -30 -28 -30 -39 -1 -39 30 0 49 21 87 95 37 72 40 127 8 149 -25
18 -25 18 -55 6z"/>
<path d="M2250 473 c-44 -16 -65 -64 -38 -91 20 -20 76 -15 88 9 22 41 -11 95
-50 82z"/>
<path d="M1428 459 c-27 -15 -21 -39 12 -52 38 -14 38 -26 0 -40 -22 -9 -30
-17 -28 -32 4 -30 63 -24 96 9 20 20 26 36 26 73 l1 48 -45 2 c-25 2 -53 -2
-62 -8z"/>
<path d="M2370 410 l0 -60 35 0 c35 0 35 0 35 -44 0 -46 -29 -96 -56 -96 -8 0
-14 -7 -14 -15 0 -22 43 -19 73 5 34 27 47 76 47 183 l0 87 -60 0 -60 0 0 -60z"/>
<path d="M2880 425 l0 -45 50 0 50 0 0 45 0 45 -50 0 -50 0 0 -45z"/>
<path d="M1860 415 c0 -32 2 -35 30 -35 28 0 30 3 30 35 0 32 -2 35 -30 35
-28 0 -30 -3 -30 -35z"/>
<path d="M1621 412 c-29 -42 -42 -107 -26 -129 13 -17 15 -17 41 3 32 23 59
93 50 129 -9 34 -40 32 -65 -3z"/>
<path d="M2700 370 c0 -47 3 -60 15 -60 10 0 15 -11 15 -35 0 -32 3 -35 28
-35 38 0 62 50 62 130 l0 60 -60 0 -60 0 0 -60z"/>
<path d="M2006 399 c-51 -40 -20 -109 49 -109 27 0 35 -4 35 -18 0 -27 -20
-42 -57 -42 -29 0 -33 -3 -33 -25 0 -24 3 -25 54 -25 39 0 60 6 80 21 24 19
26 26 26 97 0 42 -4 82 -8 88 -25 38 -105 45 -146 13z"/>
<path d="M2915 361 c-34 -5 -40 -10 -42 -31 -1 -14 -5 -37 -9 -52 -6 -27 -5
-28 34 -28 39 0 41 1 56 47 17 51 20 74 9 72 -5 -1 -26 -5 -48 -8z"/>
<path d="M2216 328 c-19 -27 -20 -51 -4 -77 9 -15 8 -24 -5 -45 -17 -26 -17
-26 7 -26 28 0 82 57 92 96 4 14 2 36 -5 50 -14 32 -63 33 -85 2z"/>
<path d="M1860 305 c0 -24 5 -35 15 -35 21 0 20 -48 -2 -72 -14 -16 -14 -18 0
-18 33 0 47 29 47 96 l0 64 -30 0 c-28 0 -30 -3 -30 -35z"/>
<path d="M2560 290 c0 -13 7 -20 20 -20 13 0 20 7 20 20 0 13 -7 20 -20 20
-13 0 -20 -7 -20 -20z"/>
<path d="M2554 247 c-2 -7 2 -26 10 -42 l15 -28 12 26 c6 14 9 33 6 41 -8 19
-36 21 -43 3z"/>
</g>
</svg>
